<svg width="47" height="55" viewBox="0 0 47 55" fill="none" xmlns="http://www.w3.org/2000/svg">
<path fill-rule="evenodd" clip-rule="evenodd" d="M16.331 51.2704C21.1886 51.2301 25.3092 51.2951 29.2562 51.7286C30.496 51.8664 31.7047 52.0583 32.8184 52.2874C33.6389 52.4562 33.9959 52.7767 33.8551 53.1327C33.7027 53.5229 32.8741 53.6746 31.9111 53.7659C31.7817 53.7783 31.6474 53.7907 31.518 53.8015C26.9912 54.5043 22.4857 54.5849 17.9065 54.0322C16.6929 53.8851 15.2861 53.899 13.9579 53.882L4.17223 53.8062C3.76934 53.7938 3.38608 53.8387 2.80632 53.7535C2.27896 53.6715 1.78108 53.4501 1.36018 53.1482C0.513453 52.5537 0.0155735 51.501 0.0614309 50.5567C0.0499666 49.0101 0.0385086 47.4635 0.0270443 45.9108C-0.0384663 42.3872 0.0352143 38.8482 0.0384898 35.3139V15.6342L0.0368905 4.84996V3.50154C0.012324 3.04795 0.107278 2.35595 0.3988 1.8621C0.944175 0.806282 2.19052 0.112736 3.40738 0.142151L9.11502 0.134403L24.3282 0.0647164L27.5333 0.0445901H38.521L41.2659 0.0213929L42.6384 0.0043375C43.1445 -0.0235287 43.8635 0.0817529 44.399 0.352674C45.5242 0.877486 46.3168 2.01691 46.3381 3.22908L46.3741 5.8516C46.42 9.11658 46.3299 12.411 46.2726 15.693L45.9303 33.484L45.9123 39.534C45.909 40.1502 45.8468 40.7772 45.7829 41.3794C45.7698 41.5187 45.6339 41.6054 45.5487 41.6642C45.5143 41.6859 45.4455 41.5915 45.4324 41.5048C45.3505 41.062 45.231 40.6177 45.2179 40.1486C45.1409 37.5153 45.0623 34.8788 45.0377 32.2346L44.9493 16.3633C44.9329 13.4668 44.8264 10.561 44.9083 7.67374L44.9673 4.73388L44.9787 3.27397C44.9722 2.85443 44.8281 2.44112 44.5661 2.10517C44.3089 1.77078 43.9404 1.50913 43.5277 1.38219C43.1281 1.23512 42.681 1.2831 42.1356 1.28774L39.0386 1.35743C34.9131 1.45806 30.7908 1.58188 26.6588 1.62677L15.4597 1.72277L4.66354 1.95035L3.33371 1.9813C3.08968 1.99988 2.85545 2.06802 2.65892 2.19806C2.25276 2.46743 2.03496 2.85445 2.06935 3.37153L2.16761 8.47411L2.36084 29.2808L2.42311 36.0926C2.42311 39.3715 2.42473 42.6597 2.42636 45.9417L2.4624 50.7254C2.49515 51.0118 2.70477 51.2672 2.975 51.3756C3.12731 51.4267 3.20758 51.4515 3.43687 51.4329L4.72907 51.3756C8.90045 51.1775 12.9359 51.3462 16.331 51.2704Z" fill="white"/>
<path fill-rule="evenodd" clip-rule="evenodd" d="M37.3349 51.4778C36.4997 52.2054 35.7185 52.7519 34.6916 53.0104C34.369 53.0924 34.0119 53.128 33.6418 53.1265C33.3699 53.1249 33.0686 52.9485 32.8278 52.6744C32.5642 52.3757 32.5985 52.1497 32.7017 51.9453C32.7164 51.9174 32.7377 51.8958 32.7459 51.8648C33.0276 50.7146 33.7712 50.0102 34.9962 49.7423C35.3221 49.6727 35.5613 49.4606 35.8102 49.281C37.032 48.4017 38.2439 47.5115 39.2446 46.4108C39.8129 45.7838 40.4844 45.2497 41.1034 44.6692L42.4432 43.4043L42.8968 42.9755C43.0245 42.8439 43.2915 42.686 43.1359 42.4801C42.9459 42.3021 42.6462 42.4259 42.4087 42.3888L41.6488 42.3903L39.4395 42.4012L35.8872 42.4708C35.6382 42.4755 35.3893 42.4941 35.1387 42.4879C34.7506 42.4755 34.4672 42.4693 34.1364 42.477C34.1429 42.7479 34.161 43.0266 34.1921 43.2789C34.2248 43.635 34.2707 44.262 34.3346 44.7404C34.4296 45.5036 34.387 46.273 34.3755 47.0378L34.2903 51.1929C34.2838 51.6635 34.3493 52.1341 34.3592 52.6063C34.3641 52.7487 34.3116 52.8958 34.2559 53.0367C34.2428 53.0692 34.1086 53.0894 34.025 53.1048C33.9923 53.1095 33.9219 53.0878 33.9055 53.0661C33.8187 52.964 33.6926 52.8618 33.6729 52.7503C33.5583 52.1373 33.442 51.5211 33.3797 50.9034C33.2733 49.6587 33.1668 48.4326 33.062 47.1988C33.003 46.5223 32.8573 45.8442 32.8966 45.1708C32.9327 44.5825 32.9097 43.9957 32.8638 43.4106C32.7983 42.6489 32.7328 41.8686 32.6673 41.0884C33.1161 41.0528 33.5615 41.0172 34.0037 40.9816C34.4558 40.9568 34.9029 40.932 35.3434 40.9088C36.2147 40.867 37.0893 40.8778 37.959 40.8112C38.7926 40.7369 39.636 40.6611 40.4795 40.5837L41.151 40.5248L42.2237 40.4691C42.9296 40.4536 43.7632 40.3546 44.4215 40.4211C44.9227 40.4924 45.2486 40.6503 45.5123 40.7927C45.6286 40.8685 45.7432 40.9181 45.8529 41.0233C45.9741 41.1379 46.1035 41.3485 46.1658 41.5482C46.2689 41.9708 46.2067 42.0637 46.156 42.4104C46.0823 42.7123 45.9594 43.0963 45.5582 43.5143L44.1333 44.9076L42.6528 46.3907C41.5326 47.496 40.3042 48.5116 39.3216 49.7346C38.7254 50.4746 37.882 50.9344 37.3349 51.4778Z" fill="white"/>
<path fill-rule="evenodd" clip-rule="evenodd" d="M13.088 15.4127C12.3658 15.3694 11.7516 15.2332 11.1653 14.73C10.9818 14.5706 10.8017 14.3569 10.6379 14.1092C10.5167 13.9265 10.4627 13.5999 10.4856 13.2469C10.5102 12.8598 10.633 12.7221 10.7771 12.6462C10.7968 12.6354 10.8164 12.6354 10.8344 12.6183C11.5108 11.9929 12.1807 11.9913 12.8604 12.623C13.0421 12.7902 13.2502 12.801 13.4483 12.8413C14.4179 13.0363 15.3874 13.2159 16.3635 13.106C16.9187 13.0425 17.4755 13.1137 18.0324 13.1168C19.0642 13.1199 20.096 13.1184 21.1294 13.1168C22.2611 13.1153 23.3928 13.1199 24.5245 13.1044C25.2795 13.0951 26.0329 13.058 26.7879 13.0348C26.9484 13.0302 27.1073 13.01 27.2645 13.0147C28.3552 13.0549 29.4444 13.0317 30.5335 12.8413C31.0477 12.7515 31.5669 12.7917 32.0844 12.801C33.0163 12.8181 33.9498 12.866 34.885 12.883C35.2011 12.8892 35.5188 12.8273 35.8365 12.818C35.9331 12.8134 36.033 12.8629 36.1264 12.9155C36.1493 12.9279 36.1641 13.0549 36.1723 13.1339C36.1772 13.1648 36.1608 13.2314 36.1477 13.2469C36.0773 13.3274 36.0085 13.4466 35.9348 13.4667C35.5204 13.5751 35.1044 13.685 34.6884 13.7438C33.8581 13.8615 33.0245 13.9466 32.1909 14.0442C31.7356 14.0983 31.277 14.2377 30.8234 14.2005C29.5885 14.0984 28.365 14.5086 27.1351 14.5969C26.5799 14.6371 26.0231 14.6247 25.4695 14.6928C24.3968 14.8213 23.3289 15.0257 22.2562 15.1279C21.1654 15.2332 20.0731 15.2517 18.9823 15.3121C18.6236 15.3291 18.2666 15.3586 17.9079 15.3694C16.8761 15.4019 15.8394 15.3013 14.8142 15.5072C14.1935 15.6326 13.5924 15.3941 13.088 15.4127Z" fill="white"/>
<path fill-rule="evenodd" clip-rule="evenodd" d="M13.088 22.3312C12.3658 22.2879 11.7516 22.1517 11.1653 21.6486C10.9818 21.4906 10.8017 21.277 10.6379 21.0278C10.5167 20.8466 10.4627 20.5184 10.4856 20.167C10.5102 19.7784 10.633 19.6407 10.7771 19.5648C10.7968 19.5555 10.8164 19.554 10.8344 19.5369C11.5108 18.913 12.1807 18.9115 12.8604 19.5416C13.0421 19.7088 13.2502 19.7196 13.4483 19.7599C14.4179 19.9549 15.3874 20.136 16.3635 20.0246C16.9187 19.9627 17.4755 20.0323 18.0324 20.0354C19.0642 20.0385 20.096 20.0369 21.1294 20.0354C22.2611 20.0339 23.3928 20.0385 24.5245 20.023C25.2795 20.0137 26.0329 19.9782 26.7879 19.9549C26.9484 19.9488 27.1073 19.9286 27.2645 19.9348C28.3552 19.9751 29.4444 19.9503 30.5335 19.7614C31.0477 19.6701 31.5669 19.7119 32.0844 19.7196C33.0163 19.7382 33.9498 19.7862 34.885 19.8017C35.2011 19.8079 35.5188 19.7475 35.8365 19.7366C35.9331 19.7335 36.033 19.7831 36.1264 19.8342C36.1493 19.8466 36.1641 19.9735 36.1723 20.0525C36.1772 20.085 36.1608 20.15 36.1477 20.167C36.0773 20.2475 36.0085 20.3667 35.9348 20.3853C35.5204 20.4937 35.1044 20.6051 34.6884 20.6639C33.8581 20.78 33.0245 20.8652 32.1909 20.9643C31.7356 21.0184 31.277 21.1562 30.8234 21.1191C29.5885 21.0169 28.365 21.4272 27.1351 21.5154C26.5799 21.5557 26.0231 21.5448 25.4695 21.6114C24.3968 21.7399 23.3289 21.9442 22.2562 22.048C21.1654 22.1532 20.0731 22.1703 18.9823 22.2306C18.6236 22.2477 18.2666 22.2771 17.9079 22.2895C16.8761 22.322 15.8394 22.2198 14.8142 22.4272C14.1935 22.5511 13.5924 22.3127 13.088 22.3312Z" fill="white"/>
<path fill-rule="evenodd" clip-rule="evenodd" d="M12.161 30.4279C11.6958 30.3846 11.2995 30.2483 10.9212 29.7452C10.8033 29.5857 10.6886 29.3737 10.5805 29.1244C10.5019 28.9417 10.4692 28.6151 10.4839 28.2622C10.497 27.8751 10.5772 27.7374 10.6706 27.6615C10.6837 27.6507 10.6952 27.6507 10.7083 27.6336C11.1439 27.0082 11.5779 27.0066 12.0152 27.6383C12.1315 27.8055 12.2658 27.8163 12.3952 27.8565C13.0192 28.0516 13.6448 28.2312 14.2753 28.1213C14.634 28.0578 14.9926 28.129 15.3513 28.1321C16.0163 28.1352 16.6845 28.1336 17.3494 28.1321C18.0798 28.1306 18.8103 28.1352 19.5407 28.1197C20.0272 28.1104 20.5152 28.0733 21 28.05C21.1032 28.0454 21.2047 28.0253 21.3095 28.0299C22.0121 28.0702 22.7147 28.0469 23.4173 27.8565C23.7482 27.7667 24.0839 27.807 24.4164 27.8163C25.019 27.8333 25.6218 27.8813 26.2245 27.8983C26.4292 27.9045 26.6339 27.8442 26.8386 27.8333C26.9008 27.8287 26.9647 27.8782 27.0253 27.9308C27.0401 27.9432 27.0499 28.0702 27.0548 28.1492C27.0581 28.1801 27.0483 28.2467 27.0384 28.2622C26.9942 28.3427 26.9483 28.4619 26.9025 28.482C26.6339 28.5904 26.3669 28.7003 26.0983 28.7606C25.5612 28.8767 25.024 28.9619 24.4868 29.0594C24.1936 29.1136 23.8972 29.2529 23.604 29.2158C22.8081 29.1136 22.0187 29.5238 21.2243 29.6121C20.8657 29.6523 20.5087 29.6399 20.15 29.7081C19.4589 29.8366 18.7677 30.0409 18.0766 30.1431C17.374 30.2484 16.6681 30.2669 15.9638 30.3273C15.7345 30.3443 15.502 30.3738 15.2711 30.3846C14.6062 30.4171 13.9363 30.3165 13.2763 30.5224C12.875 30.6478 12.4869 30.4093 12.161 30.4279Z" fill="white"/>
</svg>
