<svg width="90" height="90" viewBox="0 0 90 90" fill="none" xmlns="http://www.w3.org/2000/svg">
<path d="M89.0881 19.4641L54.0362 0.216809C53.5095 -0.0722696 52.8709 -0.0722696 52.3443 0.216809L39.1325 7.47122C38.8538 7.54469 38.5935 7.68476 38.3779 7.88595L17.2931 19.4641C16.7307 19.7724 16.3812 20.363 16.3812 21.005V44.2836C12.8244 45.396 9.5649 47.3577 6.85471 50.0686C-0.209509 57.1322 -2.01058 67.9056 2.37297 76.8767C2.79869 77.7487 3.85132 78.1106 4.72336 77.6842C5.59609 77.2577 5.95726 76.2051 5.53154 75.3331C1.80717 67.7106 3.33771 58.5569 9.34037 52.5543C13.0942 48.8004 18.0848 46.7329 23.3932 46.7329C28.7017 46.7329 33.6922 48.8004 37.4461 52.5543C41.1993 56.3075 43.2668 61.298 43.2668 66.6065C43.2668 71.9149 41.1993 76.9055 37.4454 80.6594C31.4428 86.662 22.2891 88.1926 14.6667 84.4682C13.7946 84.0418 12.742 84.4037 12.3163 85.2757C11.8899 86.1484 12.251 87.2011 13.1238 87.6268C16.3915 89.2239 19.8975 89.9998 23.3781 89.9998C29.4501 89.9991 35.4411 87.6357 39.9318 83.145C41.991 81.0858 43.6184 78.71 44.7699 76.1275L52.3443 80.2865C52.608 80.4314 52.8991 80.5035 53.1902 80.5035C53.4814 80.5035 53.7732 80.4314 54.0362 80.2865L89.0881 61.0399C89.6504 60.7309 89.9999 60.1403 89.9999 59.499V47.2829C89.9999 46.312 89.2131 45.5251 88.2421 45.5251C87.2712 45.5251 86.4843 46.312 86.4843 47.2829V58.4588L54.9535 75.7725V41.2892L65.3597 35.5749V44.6331C65.3597 45.2552 65.6879 45.8306 66.2228 46.1465C66.4988 46.3092 66.8078 46.391 67.1175 46.391C67.4086 46.391 67.7004 46.3189 67.9648 46.1733L75.476 42.039C76.0377 41.73 76.3858 41.1402 76.3858 40.4995V29.5201L86.4843 23.9754V33.2211C86.4843 34.192 87.2712 34.9789 88.2421 34.9789C89.2131 34.9789 89.9999 34.192 89.9999 33.2211V21.005C89.9999 20.3636 89.6504 19.7724 89.0881 19.4641ZM53.1902 3.76264L84.5899 21.005L74.685 26.4439L43.2854 9.20156L53.1902 3.76264ZM53.1902 38.2466L21.7906 21.005L32.0587 15.3662L63.459 32.6079L53.1902 38.2466ZM67.1106 30.6029L35.711 13.3612L39.6331 11.2072L71.0334 28.4489L67.1106 30.6029ZM39.9318 50.0686C35.5139 45.6507 29.6403 43.218 23.3932 43.218C22.2115 43.218 21.0442 43.3052 19.8968 43.4761V23.9754L51.4386 41.2954V75.7787L45.964 72.7726C46.503 70.7882 46.7818 68.7186 46.7818 66.6065C46.7818 60.3594 44.349 54.4858 39.9318 50.0686ZM72.8709 39.4606L68.8753 41.66V33.6447L72.8709 31.4509V39.4606Z" fill="#6B42AD"/>
<path d="M88.2422 38.485C87.7801 38.485 87.3262 38.6732 86.9994 39C86.6725 39.3269 86.4844 39.7801 86.4844 40.2429C86.4844 40.705 86.6725 41.1582 86.9994 41.485C87.3262 41.8125 87.7801 42 88.2422 42C88.7043 42 89.1582 41.8125 89.485 41.485C89.8119 41.1582 90 40.705 90 40.2429C90 39.7801 89.8119 39.3269 89.485 39C89.1582 38.6732 88.7043 38.485 88.2422 38.485Z" fill="#6B42AD"/>
<path d="M17.482 68.3636C17.9317 68.3636 18.3822 68.1919 18.7248 67.8493C19.4115 67.1626 19.4115 66.0496 18.7248 65.3629L17.5074 64.1448H27.8963C30.4163 64.1448 32.4667 66.1952 32.4667 68.7152C32.4667 71.2351 30.4163 73.2855 27.8963 73.2855H21.7406C20.7696 73.2855 19.9827 74.0724 19.9827 75.0433C19.9827 76.0135 20.7696 76.8004 21.7406 76.8004H27.8963C32.3547 76.8004 35.9823 73.1735 35.9823 68.7152C35.9823 64.2568 32.3547 60.6299 27.8963 60.6299H17.5074L18.7248 59.4118C19.4115 58.7251 19.4115 57.6121 18.7248 56.9254C18.0389 56.2395 16.9258 56.2395 16.2392 56.9254L12.0204 61.1442C11.3344 61.8308 11.3344 62.9439 12.0204 63.6305L16.2392 67.8486C16.5825 68.1919 17.0322 68.3636 17.482 68.3636Z" fill="#6B42AD"/>
<path d="M8.09875 83.6622C7.59887 83.6622 7.10243 83.4493 6.75567 83.0366L6.75224 83.0325C6.12739 82.2896 6.22352 81.1813 6.96647 80.5565C7.70942 79.9309 8.81835 80.027 9.4432 80.77C10.0674 81.5136 9.97331 82.624 9.23034 83.2488C8.90006 83.5262 8.49838 83.6622 8.09875 83.6622Z" fill="#6B42AD"/>
</svg>
