<svg width="580" height="205" viewBox="0 0 580 205" fill="none" xmlns="http://www.w3.org/2000/svg">
<path fill-rule="evenodd" clip-rule="evenodd" d="M69.4404 201.367C55.0219 201.439 39.239 203.441 26.0096 196.243C4.37276 184.472 3.14502 158.348 3.01063 136.157C2.82385 105.279 5.14721 106.53 6.12666 76.919C6.59817 62.6799 4.5231 44.4997 8.56619 30.6628C11.1447 21.8389 16.4292 13.4382 24.4538 9.22745C30.5652 6.01877 37.6446 5.50027 44.503 5.07477C80.3989 2.84496 116.347 1.52197 152.307 1.10809C188.267 1.52197 500.601 2.84496 536.495 5.07477C543.355 5.50027 550.435 6.01877 556.546 9.22745C564.571 13.4382 569.855 21.8389 572.434 30.6628C576.475 44.4997 574.402 62.6799 574.873 76.919C575.853 106.53 578.176 105.279 577.989 136.157C577.857 158.348 576.629 184.472 554.99 196.243C541.761 203.441 525.978 201.439 511.56 201.367C494.77 201.283 86.2301 201.283 69.4404 201.367Z" fill="#F6F0FF"/>
<path fill-rule="evenodd" clip-rule="evenodd" d="M7.95282 99.2899C7.46731 104.572 6.89974 109.641 6.57607 114.608C6.23872 119.583 6.09283 124.496 6.02445 129.351C5.92188 139.072 5.86261 148.485 6.74246 157.407C7.21201 161.866 7.92775 166.205 9.00134 170.369C10.1228 174.516 11.6796 178.438 13.6992 182.022C17.7132 189.216 24.1821 194.597 31.5286 197.694C40.9175 201.502 51.2728 201.668 60.6069 201.943C67.5294 202.109 70.4904 202.778 69.2527 203.491C67.8987 204.214 60.9716 204.808 52.6883 205C51.5714 204.998 50.3633 204.996 49.3148 204.993C44.4118 204.981 39.4085 204.658 34.4531 203.463C31.9731 202.916 29.5342 202.059 27.1476 201.066C24.7565 200.04 22.5615 198.651 20.3482 197.282C16.0538 194.301 12.3475 190.391 9.50281 185.969C6.64445 181.546 4.63402 176.663 3.23903 171.706C0.544779 161.739 0.0296322 151.596 0 141.693C0.034191 131.806 0.259853 121.891 1.31066 111.927C1.86911 106.652 2.59396 101.048 3.09998 95.3328C3.61741 89.6128 3.93425 83.7435 4.16675 78.0236C4.74799 64.1653 3.15241 49.8712 5.80563 35.5653C7.16415 28.4346 10.0202 21.4717 14.6565 15.7797C16.977 12.9535 19.7692 10.4561 22.9809 8.66056C26.1834 6.8254 29.7028 5.75975 33.1949 5.10917C36.6983 4.45858 40.204 4.20441 43.6619 3.99454L54.008 3.40226C60.9078 3.05015 67.8143 2.69571 74.7232 2.33894C88.5432 1.68135 102.388 1.13571 116.263 0.68333C147.789 -0.589855 179.507 0.286918 211.072 0.38952C269.744 0.804587 328.409 1.21732 387.076 1.6324L483.545 2.68639C499.63 2.93589 515.691 3.15042 531.811 3.73571C535.85 3.89427 539.857 4.04585 543.935 4.50988C547.997 4.96692 552.141 5.76674 556.032 7.50396C559.939 9.22719 563.376 11.9532 566.141 15.1804C568.926 18.41 571.046 22.1503 572.655 26.0631C574.818 31.3004 575.849 36.9248 576.38 42.4559C576.89 48.008 576.945 53.5486 576.884 59.047C576.838 64.5502 576.658 70.023 576.756 75.4492C576.904 80.8777 577.15 86.3645 577.526 91.7977C577.893 97.2426 578.466 102.657 578.974 108.144C579.494 113.631 579.772 119.165 579.895 124.67C580.038 135.677 580.221 146.667 579.049 157.752C578.52 162.411 577.727 167.063 576.471 171.627C575.185 176.183 573.337 180.621 570.827 184.683C566.594 191.75 559.95 197.13 552.542 200.313C545.04 203.45 536.96 204.16 529.169 204.221C521.307 204.24 513.694 203.79 505.933 203.93L482.722 203.955C451.772 204.071 420.836 204.187 389.9 204.303C360.701 204.483 331.235 204.403 301.895 204.382C248.851 204.326 195.803 204.272 142.754 204.219C124.724 204.263 106.685 204.307 88.6503 204.35C83.1387 204.356 77.5314 204.261 72.1224 204.153C70.8893 204.13 70.0937 203.876 69.5604 203.715C69.3598 203.653 70.1941 203.522 70.9599 203.489C74.9124 203.323 78.8717 203.085 83.0567 203.049C106.607 202.861 130.176 202.675 153.821 202.489C201.098 202.288 248.422 202.086 295.734 201.887C321.644 201.778 347.613 201.497 373.445 201.575C408.536 201.677 443.459 201.521 478.345 201.318L504.504 201.162C508.857 201.14 513.229 201.071 517.606 201.183C521.971 201.271 526.315 201.393 530.63 201.286C539.21 201.089 547.915 199.867 555.264 195.587C558.958 193.499 562.211 190.715 564.987 187.509C567.8 184.309 569.836 180.466 571.493 176.495C574.477 169.265 575.685 161.317 576.341 153.39C576.927 145.433 576.922 137.364 576.865 129.317C576.811 121.264 576.409 113.291 575.575 105.287C574.748 97.2659 574.103 89.1464 573.781 81.0736C572.87 65.3967 575.005 49.6567 571.869 34.8494C570.267 27.5951 566.948 20.5973 561.769 15.6025C559.195 13.0934 556.171 11.2209 552.82 10.048C549.462 8.86809 545.836 8.31078 542.141 7.975C538.439 7.62755 534.621 7.52261 530.86 7.39203C527.095 7.22881 523.288 7.18217 519.493 7.10288L496.701 6.74845C481.498 6.60387 466.287 6.45697 451.072 6.31006C389.086 5.92064 327.032 5.53123 265.005 5.13948L204.084 4.87132C189.418 4.77571 174.734 4.68011 160.048 4.58684L154.536 4.53553L151.849 4.52387L149.1 4.55885L138.102 4.72675L116.117 5.24442C101.467 5.66415 86.8337 6.25876 72.2341 7.01195C64.9355 7.43635 57.6437 7.86307 50.361 8.28513C43.0601 8.83078 35.7524 8.90073 29.5478 11.0507C22.0737 13.4874 16.5917 19.9537 13.4553 27.3992C10.2938 34.8378 9.537 43.2045 9.32501 51.4755C9.11759 59.7653 9.51877 67.9873 9.31818 76.13C9.06289 84.1819 8.60929 91.9003 7.95282 99.2899Z" fill="#7757AC"/>
</svg>
