<svg width="60" height="60" viewBox="0 0 60 60" fill="none" xmlns="http://www.w3.org/2000/svg">
<g filter="url(#filter0_d)">
<path d="M30.0056 12.1806C22.9113 12.1806 17.1891 17.9042 17.1891 25C17.1891 32.0958 22.9113 37.8194 30.0056 37.8194C37.0998 37.8194 42.8221 32.0958 42.8221 25C42.8221 17.9042 37.0998 12.1806 30.0056 12.1806ZM30.0056 33.3343C25.4211 33.3343 21.6732 29.5967 21.6732 25C21.6732 20.4033 25.4099 16.6657 30.0056 16.6657C34.6012 16.6657 38.338 20.4033 38.338 25C38.338 29.5967 34.5901 33.3343 30.0056 33.3343ZM46.3358 11.6563C46.3358 13.3186 44.9972 14.6463 43.3464 14.6463C41.6843 14.6463 40.3569 13.3075 40.3569 11.6563C40.3569 10.005 41.6955 8.66618 43.3464 8.66618C44.9972 8.66618 46.3358 10.005 46.3358 11.6563ZM54.8243 14.691C54.6347 10.6856 53.72 7.13768 50.7864 4.21455C47.8639 1.29142 44.3168 0.376548 40.3123 0.175722C36.1852 -0.0585741 23.8148 -0.0585741 19.6877 0.175722C15.6944 0.365391 12.1472 1.28026 9.21361 4.20339C6.27998 7.12652 5.37646 10.6744 5.17568 14.6798C4.94144 18.8079 4.94144 31.181 5.17568 35.309C5.36531 39.3144 6.27998 42.8623 9.21361 45.7855C12.1472 48.7086 15.6832 49.6235 19.6877 49.8243C23.8148 50.0586 36.1852 50.0586 40.3123 49.8243C44.3168 49.6346 47.8639 48.7197 50.7864 45.7855C53.7089 42.8623 54.6235 39.3144 54.8243 35.309C55.0586 31.181 55.0586 18.819 54.8243 14.691ZM49.4925 39.7384C48.6224 41.9251 46.9381 43.6098 44.7407 44.4912C41.4501 45.7966 33.6419 45.4954 30.0056 45.4954C26.3692 45.4954 18.5499 45.7855 15.2705 44.4912C13.0842 43.621 11.3999 41.9363 10.5187 39.7384C9.21361 36.4471 9.51478 28.6372 9.51478 25C9.51478 21.3628 9.22476 13.5418 10.5187 10.2616C11.3887 8.07486 13.0731 6.39016 15.2705 5.50876C18.5611 4.20339 26.3692 4.50463 30.0056 4.50463C33.6419 4.50463 41.4612 4.21455 44.7407 5.50876C46.9269 6.379 48.6113 8.06371 49.4925 10.2616C50.7975 13.5529 50.4964 21.3628 50.4964 25C50.4964 28.6372 50.7975 36.4582 49.4925 39.7384Z" fill="#3A1576"/>
</g>
<defs>
<filter id="filter0_d" x="0" y="0" width="60" height="60" filterUnits="userSpaceOnUse" color-interpolation-filters="sRGB">
<feFlood flood-opacity="0" result="BackgroundImageFix"/>
<feColorMatrix in="SourceAlpha" type="matrix" values="0 0 0 0 0 0 0 0 0 0 0 0 0 0 0 0 0 0 127 0"/>
<feOffset dy="5"/>
<feGaussianBlur stdDeviation="2.5"/>
<feColorMatrix type="matrix" values="0 0 0 0 0 0 0 0 0 0 0 0 0 0 0 0 0 0 0.1 0"/>
<feBlend mode="normal" in2="BackgroundImageFix" result="effect1_dropShadow"/>
<feBlend mode="normal" in="SourceGraphic" in2="effect1_dropShadow" result="shape"/>
</filter>
</defs>
</svg>
