<?xml version="1.0" encoding="UTF-8"?>
<svg viewBox="0 0 65 45" xmlns="http://www.w3.org/2000/svg">
<path d="m40.233 38.524c4.9836 0.0876 9.2093 0.3572 13.249 1.355 1.2683 0.3157 2.5025 0.7373 3.6418 1.2305 0.8365 0.3618 1.1984 1.0116 1.0479 1.7121-0.1665 0.772-1.021 1.0416-2.008 1.1914-0.1344 0.0207-0.2777 0.023-0.4031 0.0553-4.6593 1.242-9.2809 1.2443-13.965-0.0069-1.2414-0.3319-2.6834-0.3526-4.0466-0.4333-6.6871-0.3871-13.369-0.7466-20.101-0.5254-3.8389 0.1199-7.6312-0.0046-11.533-0.0322-2.1783-0.053-4.2634-1.7075-5.3095-4.1524-0.52845-1.2098-0.80071-2.6247-0.80071-3.9934v-3.4335l-0.001804-13.736-0.001804-7.526c0.0089567-0.66594-0.017896-1.1729 0.017931-1.9656 0.02687-0.76274 0.14869-1.5209 0.34932-2.2398 0.3923-1.4448 1.1196-2.7283 2.0529-3.6708 0.9297-0.94939 2.0798-1.5324 3.2602-1.6937 0.63593-0.059913 1.0802-0.039168 1.5746-0.043776l1.4617-0.002286 5.8541-0.013854 15.606-0.13825 3.2871-0.03917c7.5165 0.080652 15.024 0.032275 22.532-0.34564l1.3292-0.053024c0.4568-0.011522 0.8312-0.046087 1.4725 0 1.1643 0.11061 2.309 0.64061 3.2746 1.4909 0.9601 0.86643 1.7555 2.0347 2.2535 3.4035 0.2633 0.67287 0.4299 1.4033 0.5517 2.1407 0.1021 0.68209 0.1326 1.6222 0.1183 2.1085l-0.1236 24.838-0.0036 1.0807c-9e-3 0.454-0.0305 0.9034-0.0914 1.3527-0.1164 0.8918-0.3278 1.772-0.6538 2.5855-0.6521 1.6153-1.6947 2.9887-2.9916 3.7837-0.7846 0.4977-1.691 0.6936-2.5276 0.6475-0.1952-0.0092-0.3188-0.2558-0.3958-0.4102-0.0287-0.0599 0.0913-0.1981 0.1988-0.235 0.566-0.1682 1.0658-0.5531 1.5925-0.795 1.4904-0.7397 2.6709-2.2859 3.2316-4.1133 0.283-0.9125 0.4138-1.8918 0.3905-2.855l-0.0788-2.7698-0.464-22.149c-0.0286-1.03-0.0089-2.0116-0.2311-2.8942-0.2096-0.89639-0.5678-1.7283-1.0569-2.4011-0.9816-1.3619-2.3484-2.09-3.7976-2.0578-8.516-0.20278-16.95 0.61066-25.428 0.78579-3.8281 0.07835-7.6634 0.05763-11.486 0.19128l-11.074 0.45165-2.7676 0.11751c-1.0587 0.02535-1.5155 0.05993-2.0905 0.38484-1.1017 0.58761-1.897 1.9702-1.9991 3.4288l0.12535 14.146 0.05374 7.261 0.0287 3.6316 0.01788 1.8043c0.02149 0.3457 0.04124 0.6913 0.12901 1.0116 0.19884 0.848 0.65024 1.597 1.2324 2.0647 0.2884 0.2374 0.60729 0.3964 0.93869 0.4817 0.33498 0.0852 0.58755 0.0829 1.3184 0.0737 7.1188-0.0668 14.268 0.1359 21.34-0.2742 4.2813-0.2466 8.4194 0.2235 11.9 0.1889z" clip-rule="evenodd" fill="#fff" fill-rule="evenodd"/>
<path d="m7.007 10.248c-1.6803-1.0969-3.0435-2.2053-4.104-3.9359-0.33498-0.54613-0.61976-1.1821-0.85084-1.8619-0.16839-0.50004-0.08062-1.1637 0.20062-1.7674 0.30812-0.66595 0.68965-0.73741 1.0784-0.67288 0.05195 0.00921 0.10211 0.03688 0.15585 0.03227 2.0027-0.17282 3.5916 0.76736 4.7918 2.862 0.31886 0.55535 0.80613 0.86872 1.2468 1.219 2.1711 1.719 4.3475 3.4081 6.73 4.5856 1.3543 0.6683 2.628 1.5808 3.941 2.3689l7.332 4.3621 4.7291 2.809 2.3539-1.4218 5.3131-3.3136c0.3744-0.2328 0.7362-0.4931 1.116-0.7074 2.6064-1.4656 5.1698-3.0418 7.624-4.9176 1.1572-0.88487 2.4129-1.5439 3.64-2.2536l6.6835-3.7999c0.7524-0.43552 1.4653-0.99086 2.2105-1.4586 0.2275-0.14287 0.4908-0.19357 0.7524-0.23505 0.0591-0.00691 0.1737 0.20047 0.249 0.33182 0.0269 0.05069 0.034 0.18895 0.0125 0.23734-0.1111 0.24656-0.1988 0.55996-0.3618 0.69591-0.9101 0.77887-1.8201 1.5624-2.7677 2.256-1.9096 1.3572-3.8119 2.7053-5.7161 4.0579-1.0444 0.74207-2.0368 1.6361-3.1367 2.2076-2.9898 1.5554-5.6195 4.0188-8.4731 5.9084-1.288 0.8549-2.6135 1.6199-3.8818 2.5209l-2.4398 1.7743-1.2163 0.8987-1.9616 1.3412-2.06-1.0693-1.3041-0.6498c-2.6512-1.348-5.2486-2.8504-7.8712-4.2837l-2.5742-1.4057c-2.4649-1.3941-4.8545-3.0394-7.4161-4.1132-1.5513-0.6499-2.8178-1.9218-4.0252-2.6016z" clip-rule="evenodd" fill="#fff" fill-rule="evenodd"/>
<path d="m17.57 15.584c0.5929-0.6314 1.202-1.0301 2.1908-0.8803 0.3099 0.0461 0.6771 0.1751 1.0694 0.3664 0.2902 0.1406 0.6843 0.5531 1.0515 1.0715 0.4031 0.5715 0.4586 0.8826 0.4318 1.1269-0.0036 0.0345-0.018 0.0553-0.0126 0.0944 0.1666 1.5324-0.3368 2.1776-1.5352 1.9403-0.317-0.0645-0.4854 0.1221-0.6789 0.2558-0.9422 0.6544-1.8701 1.3296-2.4846 2.4241-0.3529 0.6199-0.8491 1.0554-1.2701 1.5854-0.7846 0.9863-1.5602 1.9795-2.3377 2.9726-0.8544 1.0877-1.7107 2.1684-2.5491 3.2745-0.5589 0.7374-1.0891 1.5117-1.6336 2.2721-0.11465 0.159-0.21143 0.341-0.33862 0.4839-0.86522 0.9908-1.6606 2.0693-2.2768 3.3828-0.2902 0.6175-0.72369 1.06-1.125 1.5416-0.72191 0.871-1.4796 1.7006-2.1998 2.5739-0.24721 0.295-0.42098 0.6867-0.65027 1.007-0.06807 0.0968-0.19525 0.1244-0.32243 0.1406-0.03045 0.0023-0.17915-0.1613-0.2723-0.265-0.03583-0.0415-0.0967-0.1475-0.10387-0.1844-0.03762-0.182-0.11285-0.4171-0.07703-0.5138 0.19347-0.5508 0.38691-1.1038 0.6377-1.5877 0.49979-0.9632 1.0372-1.8804 1.5567-2.8205 0.28483-0.5139 0.48009-1.1499 0.86523-1.5324 1.0426-1.0416 1.5191-2.7929 2.3521-4.0971 0.37439-0.5899 0.80607-1.1084 1.1536-1.7352 0.66818-1.2098 1.2522-2.5256 1.949-3.6985 0.7094-1.1936 1.5119-2.2698 2.2732-3.4012 0.2508-0.3687 0.489-0.7512 0.7452-1.1107 0.7434-1.0393 1.6355-1.8896 2.1873-3.1639 0.3314-0.7719 1.0425-1.0139 1.4044-1.5231z" clip-rule="evenodd" fill="#fff" fill-rule="evenodd"/>
<path d="m43.548 20.002c-0.498-0.7558-0.8133-1.5347-0.7094-2.8067 0.0323-0.4009 0.129-0.8733 0.2741-1.3826 0.1057-0.3733 0.421-0.8848 0.8222-1.3642 0.4389-0.523 0.6808-0.5968 0.8706-0.5668 0.0251 0.0046 0.043 0.023 0.0735 0.0161 1.1876-0.2327 1.6946 0.4079 1.5244 1.9495-0.0466 0.4101 0.1003 0.6268 0.206 0.871 0.5195 1.2075 1.0551 2.3919 1.9113 3.1731 0.4873 0.4447 0.8313 1.0784 1.2486 1.6153 0.7739 0.9955 1.5549 1.9841 2.3359 2.9726 0.8563 1.0854 1.7054 2.1753 2.5742 3.2422 0.5804 0.7098 1.1876 1.385 1.7842 2.074 0.1254 0.1451 0.265 0.2696 0.3797 0.4309 0.7792 1.1014 1.6283 2.113 2.6548 2.8896 0.4854 0.3687 0.8329 0.9217 1.2109 1.431 0.6861 0.9194 1.3381 1.8849 2.026 2.8021 0.2329 0.3134 0.5392 0.5323 0.7882 0.8226 0.077 0.0876 0.1003 0.2512 0.1147 0.4171 0.0036 0.0392-0.1236 0.2304-0.2025 0.3526-0.0322 0.046-0.1146 0.1244-0.1433 0.1336-0.1397 0.0507-0.3206 0.1521-0.3976 0.106-0.43-0.2442-0.8635-0.4862-1.2414-0.8019-0.7542-0.6337-1.4743-1.3135-2.2106-1.9725-0.403-0.3618-0.8974-0.6037-1.2002-1.0946-0.8204-1.3296-2.189-1.9241-3.2118-2.9795-0.464-0.477-0.8706-1.0254-1.3614-1.4633-0.9476-0.8479-1.9759-1.5853-2.8966-2.4679-0.9351-0.901-1.7824-1.9195-2.6692-2.885-0.2884-0.318-0.5893-0.6199-0.8705-0.9471-0.8151-0.9448-1.4868-2.0831-2.4846-2.7767-0.6055-0.4194-0.799-1.3296-1.2002-1.7905z" clip-rule="evenodd" fill="#fff" fill-rule="evenodd"/>
</svg>
