<svg width="91" height="90" viewBox="0 0 91 90" fill="none" xmlns="http://www.w3.org/2000/svg">
<path d="M21 22.5C23.4853 22.5 25.5 20.4853 25.5 18V12C25.5 9.51472 23.4853 7.5 21 7.5H12C9.51472 7.5 7.5 9.51472 7.5 12V18C7.5 20.4853 9.51472 22.5 12 22.5H21ZM21 19.5H16.5V16.5H22.5V18C22.5 18.8284 21.8284 19.5 21 19.5ZM22.5 12V13.5H16.5V10.5H21C21.8284 10.5 22.5 11.1716 22.5 12ZM12 10.5H13.5V13.5H10.5V12C10.5 11.1716 11.1716 10.5 12 10.5ZM10.5 18V16.5H13.5V19.5H12C11.1716 19.5 10.5 18.8284 10.5 18Z" fill="#6B42AD"/>
<path d="M12 31.5C11.1716 31.5 10.5 32.1716 10.5 33C10.5 33.8284 11.1716 34.5 12 34.5H21C21.8284 34.5 22.5 33.8284 22.5 33C22.5 32.1716 21.8284 31.5 21 31.5H12Z" fill="#6B42AD"/>
<path d="M28.5 31.5H27C26.1716 31.5 25.5 32.1716 25.5 33C25.5 33.8284 26.1716 34.5 27 34.5H28.5C29.3284 34.5 30 33.8284 30 33C30 32.1716 29.3284 31.5 28.5 31.5Z" fill="#6B42AD"/>
<path d="M15 40.5H12C11.1716 40.5 10.5 41.1716 10.5 42C10.5 42.8284 11.1716 43.5 12 43.5H15C15.8284 43.5 16.5 42.8284 16.5 42C16.5 41.1716 15.8284 40.5 15 40.5Z" fill="#6B42AD"/>
<path d="M28.5 40.5H22.5C21.6716 40.5 21 41.1716 21 42C21 42.8284 21.6716 43.5 22.5 43.5H28.5C29.3284 43.5 30 42.8284 30 42C30 41.1716 29.3284 40.5 28.5 40.5Z" fill="#6B42AD"/>
<path d="M55.5006 21C57.2302 20.9945 58.8722 20.238 60.0006 18.927C61.6404 20.8213 64.2847 21.4973 66.6324 20.6222C68.9801 19.7472 70.5369 17.5055 70.5369 15C70.5369 12.4946 68.9801 10.2529 66.6324 9.37784C64.2847 8.50282 61.6404 9.17874 60.0006 11.073C58.1839 8.99305 55.1804 8.4252 52.7298 9.69842C50.2792 10.9716 49.0172 13.7557 49.6748 16.4379C50.3323 19.1201 52.7389 21.0047 55.5006 21ZM64.5006 12C66.1574 12 67.5006 13.3432 67.5006 15C67.5006 16.6569 66.1574 18 64.5006 18C62.8437 18 61.5006 16.6569 61.5006 15C61.5006 13.3432 62.8437 12 64.5006 12ZM55.5006 12C57.1574 12 58.5006 13.3432 58.5006 15C58.5006 16.6569 57.1574 18 55.5006 18C53.8437 18 52.5006 16.6569 52.5006 15C52.5006 13.3432 53.8437 12 55.5006 12Z" fill="#6B42AD"/>
<path d="M85.722 31.4865C83.1269 31.3638 80.5452 31.0403 78 30.519V10.5C77.9934 4.70375 73.2962 0.00661292 67.5 0H10.5C4.70376 0.00661292 0.006613 4.70375 0 10.5V42C0.006613 47.7963 4.70376 52.4934 10.5 52.5H33V55.374C33 55.5903 33.0155 55.8064 33.0465 56.0205C33.426 58.659 37.413 82.0305 60.0465 89.76C60.9906 90.08 62.0139 90.08 62.958 89.76C85.59 82.0305 89.577 58.659 89.958 56.01C89.988 55.7978 90.003 55.5838 90.003 55.3695V36C90.0131 33.5926 88.1266 31.6036 85.722 31.4865ZM10.5 49.5C6.35993 49.495 3.00496 46.1401 3 42V10.5C3.00496 6.35992 6.35993 3.00496 10.5 3H67.5C71.6401 3.00496 74.995 6.35992 75 10.5V29.784C71.1366 28.7585 67.5162 26.9738 64.35 24.534C62.6916 23.1885 60.3174 23.1885 58.659 24.534C51.8115 30.033 42.327 31.248 37.2825 31.4835C34.8761 31.5999 32.9883 33.5909 33 36V49.5H10.5ZM87 55.374C86.9996 55.4472 86.9946 55.5204 86.985 55.593C86.631 58.0455 82.9275 79.7685 61.9845 86.9205C61.6698 87.027 61.3287 87.027 61.014 86.9205C40.0725 79.7685 36.369 58.05 36.0165 55.5975C36.0058 55.5235 36.0003 55.4488 36 55.374V36C35.9899 35.1964 36.615 34.5276 37.4175 34.4835C42.8265 34.2315 53.0175 32.9085 60.5325 26.8755C61.0941 26.4117 61.9059 26.4117 62.4675 26.8755C69.978 32.9085 80.1675 34.2255 85.5825 34.4835C86.385 34.5276 87.01 35.1964 87 36V55.374Z" fill="#6B42AD"/>
<path d="M82.65 37.2569C75.4339 36.7067 68.4636 34.3918 62.352 30.5159C61.8411 30.1661 61.1678 30.1661 60.657 30.5159C54.5427 34.3932 47.5691 36.7081 40.35 37.2569C39.5835 37.3339 39 37.9791 39 38.7494V55.0859C39.0003 55.1617 39.0058 55.2374 39.0165 55.3124C39.558 58.8539 43.1535 76.8614 60.972 83.5619C61.3106 83.6884 61.6834 83.6884 62.022 83.5619C80.25 76.7129 83.655 57.4844 83.9835 55.3139C83.9943 55.2399 83.9998 55.1652 84 55.0904V38.7494C84 37.9791 83.4165 37.3339 82.65 37.2569ZM81 54.9734C80.6145 57.3989 77.3895 74.2364 61.5 80.5499C45.6285 74.2499 42.3885 57.3989 42 54.9689V40.0949C48.9036 39.3815 55.5633 37.1469 61.5 33.5519C67.4367 37.1469 74.0964 39.3815 81 40.0949V54.9734Z" fill="#6B42AD"/>
<path d="M53.5606 55.9395C52.972 55.3711 52.0365 55.3792 51.4579 55.9578C50.8793 56.5364 50.8711 57.472 51.4396 58.0605L57.4396 64.0605C57.7208 64.3419 58.1023 64.5 58.5001 64.5H58.5751C58.9984 64.4787 59.3929 64.2792 59.6611 63.951L73.1611 47.451C73.6701 46.8088 73.5695 45.877 72.9352 45.3582C72.3008 44.8394 71.3676 44.9257 70.8391 45.552L58.3891 60.7695L53.5606 55.9395Z" fill="#6B42AD"/>
</svg>
