<svg width="68" height="65" viewBox="0 0 68 65" fill="none" xmlns="http://www.w3.org/2000/svg">
<path fill-rule="evenodd" clip-rule="evenodd" d="M48.6728 57.7277C53.5284 55.3044 56.9643 52.2519 60.0557 49.0692C60.5322 48.5574 61.0284 48.0604 61.5186 47.5728C61.9558 47.0535 62.4007 46.551 62.8477 46.0671C63.5034 45.3579 64.0803 45.1625 64.4052 45.4901C64.7636 45.8493 64.4387 46.7929 63.9622 47.8464C63.8952 47.9897 63.8283 48.1349 63.7633 48.2726C61.6821 53.3612 57.2951 57.5416 52.0339 59.7807C51.3467 60.0952 50.5749 60.3763 49.8326 60.7336C49.0922 61.1003 48.3223 61.4353 47.5387 61.6959C40.0092 64.5715 31.5562 64.8656 23.8199 62.6581C19.4074 61.4372 15.3138 59.2186 11.8247 56.3913C5.31121 51.1445 1.07586 43.4892 0.199653 35.4505C-0.84983 26.6301 2.28483 17.5026 8.50298 10.8617C12.6674 6.46548 18.0743 3.08547 24.0877 1.38988C25.3302 0.958077 26.6395 0.762646 27.9253 0.487183C36.8686 -1.01856 46.3159 1.01764 53.8296 5.88106C57.3876 8.17224 60.4022 11.2563 62.702 14.7108C66.8606 20.9627 68.7193 28.5602 67.7466 35.8879C67.5871 37.1294 67.3233 38.3597 67.0929 39.5937C66.7188 40.7942 66.4628 42.0375 65.9706 43.2026C65.6733 43.9173 65.307 44.6209 64.9506 45.2891C64.8679 45.4435 64.6769 45.4808 64.5568 45.5087C64.5096 45.518 64.4781 45.3803 64.5017 45.2742C64.6218 44.7307 64.6946 44.176 64.8955 43.64C66.0159 40.6229 66.6774 37.4607 66.7857 34.2817C67.1618 27.9237 65.3208 21.5527 61.8416 16.1979C59.8844 13.2832 57.3542 10.7687 54.6232 8.55566C50.8938 5.54231 46.3592 3.48378 41.6316 2.47313C36.8981 1.42711 31.9618 1.58532 27.2814 2.55875C23.05 3.44656 18.9781 5.10678 15.493 7.52267C8.72154 12.172 4.27748 19.4402 3.02716 27.0824C1.69807 34.8661 3.78719 43.1058 8.7491 49.4043C10.4169 51.42 12.2402 53.3464 14.408 54.8875C20.4884 59.4922 28.5318 61.9955 36.2523 61.1319C40.8854 60.6257 45.3235 59.4977 48.6728 57.7277Z" fill="white"/>
<path fill-rule="evenodd" clip-rule="evenodd" d="M10.4151 43.603C8.70801 44.234 7.21156 44.6621 5.595 44.6565C5.08503 44.6546 4.56128 44.5876 4.05327 44.4685C3.67916 44.381 3.39365 44.0684 3.26763 43.657C3.1298 43.2047 3.35033 42.9367 3.64569 42.719C3.68703 42.6892 3.73429 42.6687 3.76973 42.6333C5.03187 41.3063 6.59526 40.6734 8.49339 40.733C8.99746 40.7479 9.49168 40.5636 9.97212 40.4222C12.331 39.7242 14.682 39.0114 16.9011 37.9709C18.1652 37.3791 19.4982 36.9342 20.7958 36.4131L28.0181 33.4984L31.9286 31.9201C32.4681 31.7116 32.9544 31.6446 33.3659 31.6148C33.807 31.5776 34.376 31.9424 34.5001 32.3407C34.8269 33.0349 34.7265 34.3173 34.7108 35.3373L34.6812 40.7628V41.9056C34.573 44.5169 34.5454 47.1282 34.7305 49.7395C34.8171 50.9735 34.7403 52.215 34.699 53.4527L34.4489 60.1606C34.4253 60.9219 34.4863 61.6831 34.4824 62.4444C34.4824 62.677 34.4154 62.9115 34.3426 63.1386C34.3268 63.1907 34.1654 63.2205 34.063 63.241C34.0236 63.2484 33.9409 63.2112 33.9212 63.1796C33.8208 63.0102 33.6731 62.8408 33.6514 62.664C33.5372 61.6682 33.4171 60.6706 33.364 59.673C33.2793 57.6684 33.1966 55.6788 33.1139 53.6816C33.0666 52.5872 32.915 51.4891 32.9879 50.4003C33.1828 47.4446 32.7241 44.5039 32.6768 41.5538C32.6551 40.223 32.6984 38.8904 32.6413 37.5596C32.5921 36.5229 32.535 34.9166 32.4464 34.8143C32.3755 34.63 32.4366 34.4309 32.2239 34.3601C31.9995 34.321 31.8222 34.5425 31.6706 34.6077L31.4639 34.7398L31.4107 34.7733L31.1823 34.8776L30.7157 35.0879L29.7745 35.5048L27.8881 36.3237L24.1057 37.9467L21.6365 39.0207C19.2442 40.0276 16.775 40.8912 14.487 42.0843C13.1009 42.8064 11.5847 43.1079 10.4151 43.603Z" fill="white"/>
<path fill-rule="evenodd" clip-rule="evenodd" d="M51.4158 9.66647C52.1069 9.01689 52.7862 8.546 53.7884 8.39524C54.1035 8.34871 54.4658 8.34871 54.8497 8.39152C55.1313 8.42316 55.4877 8.63534 55.8027 8.94058C56.1493 9.27561 56.167 9.50268 56.1099 9.69811C56.102 9.72417 56.0843 9.74464 56.0843 9.77628C56.0685 10.9173 55.468 11.5538 54.261 11.6897C53.94 11.7269 53.7431 11.9149 53.5265 12.0712C52.4711 12.8343 51.4295 13.6067 50.6577 14.6193C50.2186 15.1944 49.6515 15.6653 49.1494 16.1901C48.2181 17.1654 47.2926 18.1444 46.3672 19.1235C45.3532 20.1955 44.3332 21.2639 43.329 22.3471C42.6615 23.0693 42.0177 23.8119 41.362 24.5471C41.2241 24.7016 41.1001 24.8672 40.9524 25.0143C39.9344 26.0138 38.9814 27.0654 38.182 28.2472C37.804 28.8056 37.3019 29.2653 36.8273 29.7474C35.9728 30.6166 35.0887 31.4616 34.2361 32.3327C33.9447 32.6286 33.7183 32.9785 33.4426 33.2875C33.3579 33.3824 33.2241 33.4364 33.0882 33.4848C33.0587 33.4959 32.9248 33.4066 32.8401 33.3508C32.8086 33.3303 32.7594 33.2633 32.7554 33.2372C32.7416 33.1051 32.6904 32.945 32.7397 32.8594C33.0094 32.3811 33.2772 31.899 33.5942 31.4579C34.2302 30.5757 34.8997 29.7195 35.5534 28.8521C35.9118 28.3757 36.1913 27.8322 36.6344 27.432C37.8394 26.3432 38.5502 24.8561 39.5721 23.6221C40.0329 23.0637 40.5429 22.5444 40.978 21.9656C41.8168 20.8488 42.5847 19.6725 43.4491 18.5744C44.3313 17.4576 45.2941 16.4079 46.2176 15.3284C46.5228 14.9748 46.8161 14.6137 47.1253 14.2656C48.0212 13.2624 49.049 12.3616 49.7756 11.2244C50.2147 10.5357 50.9786 10.1579 51.4158 9.66647Z" fill="white"/>
<path fill-rule="evenodd" clip-rule="evenodd" d="M24.1608 37.7757C23.8714 37.7032 23.6331 37.5636 23.4323 37.1318C23.3693 36.9959 23.3102 36.8172 23.261 36.6106C23.2236 36.458 23.2255 36.1937 23.259 35.9126C23.2964 35.6037 23.3574 35.5013 23.4224 35.4492C23.4303 35.4417 23.4382 35.4417 23.448 35.4287C23.769 34.9653 24.0505 34.9988 24.2829 35.5367C24.3439 35.68 24.4286 35.6986 24.5074 35.7414C24.8913 35.948 25.2733 36.1416 25.6829 36.1044C25.9172 36.082 26.1397 36.1676 26.3681 36.1974L27.64 36.3575L29.0361 36.5231C29.3413 36.5436 29.6583 36.5641 29.9733 36.5846C30.0383 36.5901 30.1072 36.5808 30.1722 36.5939C30.6152 36.6832 31.0642 36.7204 31.5367 36.6255C31.7592 36.5808 31.9679 36.6404 32.1786 36.6739C32.5527 36.7428 32.9465 36.8153 33.3206 36.8842C33.4506 36.9047 33.5904 36.873 33.7204 36.8823C33.7617 36.8842 33.7972 36.927 33.8287 36.9735C33.8346 36.9847 33.8227 37.0852 33.8149 37.1485C33.8129 37.1746 33.7971 37.2248 33.7893 37.236C33.7499 37.2974 33.7046 37.3886 33.6711 37.3998C33.486 37.4649 33.301 37.5301 33.1237 37.5543C32.7378 37.5952 32.4149 37.6287 32.0624 37.6641C31.8695 37.6845 31.6647 37.772 31.4855 37.718C30.9933 37.5729 30.4439 37.8353 29.9359 37.8427C29.7036 37.8465 29.4791 37.8092 29.2468 37.8334C28.7959 37.8818 28.341 37.9898 27.896 38.0177C27.4432 38.0456 27.0001 38.0047 26.5531 37.9954C26.4074 37.9935 26.2519 37.9898 26.1141 37.9879C25.6927 37.9619 25.2831 37.826 24.8519 37.9395C24.59 38.0065 24.3656 37.7869 24.1608 37.7757Z" fill="white"/>
<path fill-rule="evenodd" clip-rule="evenodd" d="M19.4906 39.9395C19.0575 39.8315 18.705 39.6659 18.4175 39.2117C18.327 39.0684 18.2482 38.8841 18.1793 38.6701C18.132 38.5137 18.1438 38.2513 18.2068 37.974C18.2738 37.6687 18.3683 37.5738 18.4668 37.5273C18.4805 37.5198 18.4943 37.5217 18.5061 37.5105C19.0102 37.0825 19.4276 37.1457 19.7565 37.7134C19.8431 37.8642 19.9691 37.894 20.0853 37.9442C20.6543 38.1973 21.2214 38.4412 21.8377 38.4635C22.1882 38.4728 22.519 38.5919 22.8576 38.6608L24.7538 39.0368L26.8252 39.4835C27.282 39.5765 27.7487 39.6696 28.2134 39.7626C28.3098 39.7831 28.4103 39.7924 28.5067 39.8203C29.1565 40.0176 29.8181 40.174 30.5171 40.2093C30.8479 40.2242 31.1492 40.3452 31.4563 40.442C32.0037 40.6263 32.5629 40.8142 33.1103 40.9985C33.2974 41.0599 33.5021 41.0711 33.6931 41.1213C33.7522 41.1362 33.7995 41.1902 33.8428 41.2479C33.8506 41.2609 33.827 41.3614 33.8093 41.4229C33.8054 41.4489 33.7778 41.4955 33.766 41.5048C33.703 41.555 33.6301 41.6332 33.5809 41.6332C33.3072 41.6406 33.0335 41.6499 32.7716 41.6202C32.2262 41.5476 31.732 41.4824 31.2161 41.4136C30.9306 41.3782 30.6274 41.4061 30.3655 41.3019C29.6547 41.0208 28.8316 41.14 28.0795 41.0246C27.7408 40.9706 27.412 40.8812 27.0654 40.8552C26.4235 40.8235 25.6674 40.7863 25.061 40.7547C24.3876 40.6951 23.7299 40.576 23.0644 40.4941C22.8478 40.468 22.6233 40.442 22.4107 40.4159C21.7845 40.3247 21.1722 40.133 20.5204 40.1889C20.1286 40.2224 19.7998 39.9748 19.4906 39.9395Z" fill="white"/>
<path fill-rule="evenodd" clip-rule="evenodd" d="M13.4239 42.8914C12.8096 42.7034 12.3115 42.4596 11.9255 41.9347C11.8054 41.7709 11.7011 41.5662 11.6203 41.3372C11.5593 41.1697 11.5928 40.9054 11.6952 40.6393C11.8074 40.3452 11.9452 40.267 12.0811 40.2428C12.1008 40.2391 12.1185 40.2428 12.1382 40.2335C12.851 39.9041 13.4043 40.053 13.8394 40.6821C13.9556 40.8496 14.1308 40.9036 14.2884 40.9762C15.0681 41.3298 15.8577 41.6686 16.7142 41.7709C17.1986 41.8342 17.6632 41.9943 18.1397 42.1022L20.7979 42.6792L23.7219 43.2934C24.3736 43.4163 25.0293 43.5391 25.685 43.6638C25.8228 43.6899 25.9626 43.7047 26.0985 43.7401C27.0318 43.9783 27.973 44.1738 28.9476 44.2538C29.4104 44.2892 29.8475 44.4288 30.2885 44.5516L32.671 45.2496C32.9408 45.3315 33.2263 45.3612 33.498 45.4301C33.5827 45.4506 33.6556 45.512 33.7225 45.5753C33.7383 45.5902 33.7186 45.6907 33.7068 45.754C33.7008 45.7782 33.6733 45.8247 33.6575 45.834C33.5768 45.8805 33.4882 45.955 33.4213 45.9513C33.0432 45.9345 32.6651 45.9178 32.2989 45.8638C31.5467 45.7521 30.8379 45.646 30.1094 45.5362C29.7096 45.4804 29.2922 45.4897 28.9102 45.3687C27.8785 45.0337 26.7502 45.1118 25.681 44.9481C25.1967 44.8717 24.7222 44.7601 24.2338 44.7098C23.2907 44.6093 22.3318 44.5758 21.3906 44.4585C20.4336 44.3413 19.4885 44.1552 18.5335 43.9951C18.2224 43.9411 17.9054 43.889 17.5983 43.8369C16.6984 43.6657 15.8242 43.3809 14.8948 43.3288C14.3317 43.2971 13.863 42.99 13.4239 42.8914Z" fill="white"/>
<path fill-rule="evenodd" clip-rule="evenodd" d="M7.52541 45.5669C6.71615 45.3845 6.04471 45.1575 5.45401 44.6493C5.26892 44.4893 5.09762 44.2864 4.94404 44.0593C4.83377 43.8918 4.82196 43.6238 4.89875 43.3483C4.98145 43.0468 5.14488 42.9631 5.31815 42.9296C5.34375 42.9258 5.36738 42.9296 5.391 42.9203C6.2554 42.5573 7.03119 42.6857 7.70854 43.3241C7.88772 43.4917 8.12399 43.5438 8.34452 43.6164C9.4196 43.9719 10.4927 44.3218 11.621 44.4595C12.2648 44.5321 12.8831 44.7238 13.5132 44.8597L17.016 45.647L20.834 46.5981L23.3779 47.2439L23.9135 47.3835C25.1166 47.7651 26.3275 48.1187 27.5778 48.3644C28.1705 48.4779 28.7317 48.6994 29.2928 48.9023C30.3148 49.2578 31.317 49.6598 32.3271 50.0414C32.6697 50.1754 33.032 50.2573 33.3785 50.3782C33.4868 50.4136 33.5774 50.4899 33.664 50.5681C33.6837 50.5848 33.6581 50.6853 33.6444 50.7486C33.6384 50.7728 33.601 50.8156 33.5814 50.8231C33.4809 50.8547 33.3687 50.9161 33.2821 50.9012C32.7997 50.8138 32.3192 50.73 31.8526 50.6072C30.9015 50.3596 29.9859 50.1214 29.0546 49.8776C28.5426 49.7529 28.009 49.684 27.5207 49.4979C26.1995 48.9804 24.7503 48.8744 23.374 48.5524C22.7538 48.3997 22.1414 48.2248 21.5133 48.1057C20.2984 47.8767 19.0678 47.7278 17.8549 47.5138C16.5947 47.2737 15.3956 47.041 14.1669 46.8047L12.956 46.5925C11.7942 46.371 10.6463 46.0583 9.45505 46.0006C8.73636 45.9671 8.10036 45.6526 7.52541 45.5669Z" fill="white"/>
<path fill-rule="evenodd" clip-rule="evenodd" d="M8.31457 50.6064C7.55847 50.357 6.94021 50.0685 6.44008 49.5082C6.28256 49.3314 6.14472 49.1137 6.03052 48.8736C5.94389 48.6967 5.96947 48.4306 6.07777 48.1644C6.19788 47.8741 6.36131 47.8071 6.53261 47.7903C6.55427 47.7885 6.57791 47.794 6.60154 47.7866C7.46987 47.5093 8.18265 47.7084 8.74972 48.3971C8.90134 48.5795 9.1199 48.6502 9.32074 48.7395C10.3013 49.1788 11.2878 49.6088 12.3511 49.8153C12.9536 49.9326 13.5285 50.1541 14.1173 50.3235L17.4055 51.2504C18.6066 51.5872 19.8058 51.9334 21.0147 52.2331L23.4366 52.8157L23.9466 52.9329C25.0965 53.2717 26.2621 53.5583 27.4573 53.7165C28.0224 53.7909 28.5639 53.9678 29.1113 54.1222L32.0885 54.8239C32.4271 54.9002 32.7756 54.9226 33.1182 54.9859C33.2206 55.0045 33.3191 55.064 33.4136 55.1273C33.4353 55.1403 33.4294 55.2427 33.4274 55.3079C33.4274 55.3339 33.4018 55.3823 33.3841 55.3916C33.2974 55.4419 33.2029 55.52 33.1202 55.5182C32.6575 55.5107 32.1908 55.5033 31.7321 55.4567C30.7948 55.3413 29.893 55.2315 28.9754 55.1199C28.4773 55.0324 27.9614 55.0119 27.4829 54.8537C26.1873 54.4275 24.7913 54.3996 23.4543 54.1204C22.8518 53.9938 22.2591 53.8263 21.6487 53.7221C20.4752 53.5136 19.2702 53.3815 18.1144 53.1321C16.929 52.8864 15.7673 52.5756 14.5938 52.2926C14.2098 52.1996 13.8219 52.1084 13.4419 52.0172C12.3373 51.7324 11.2622 51.3434 10.1221 51.1964C9.43297 51.107 8.85408 50.7441 8.31457 50.6064Z" fill="white"/>
</svg>
