<svg width="69" height="65" viewBox="0 0 69 65" fill="none" xmlns="http://www.w3.org/2000/svg">
<path fill-rule="evenodd" clip-rule="evenodd" d="M53.213 41.6243C53.8934 38.0094 53.918 34.8729 53.795 31.7462C53.7684 30.8124 53.7438 29.8302 53.7192 28.8267C53.7049 28.1313 53.9856 27.705 54.4693 27.6547C54.996 27.5985 55.451 28.201 55.8199 28.9643L55.9654 29.2762C58.0415 32.7904 58.4227 37.0969 57.0618 40.9192C56.6724 41.9246 56.5064 43.118 56.1068 44.2009C54.4529 49.5923 50.9566 54.2495 46.622 57.9535C44.1155 60.0477 41.109 61.5859 37.9692 62.6476C32.1283 64.6817 25.6008 64.7204 19.6841 62.9536C13.1751 61.0086 7.55755 56.6827 4.07965 51.1595C1.70844 47.4961 0.337361 43.2671 0.0832299 38.9683C0.00330157 38.0636 -0.0397343 37.157 0.0504412 36.2523C0.355808 30.022 3.00368 23.9817 7.33006 19.2354C9.36311 16.9823 11.9229 15.1341 14.6876 13.7083C17.2145 12.4587 19.9177 11.558 22.705 11.0097C25.5066 10.5641 28.3614 10.3743 31.1856 10.6532C33.1018 10.8353 35.0221 11.124 36.8789 11.6509C37.4446 11.8156 37.9959 12.0539 38.5103 12.3135C38.6271 12.3697 38.6476 12.546 38.6599 12.6603C38.664 12.7029 38.5513 12.7493 38.4693 12.7416C38.041 12.6951 37.5983 12.7029 37.1782 12.5963C34.8069 11.99 32.3702 11.6974 29.9416 11.6432C27.5089 11.589 25.0926 11.8853 22.7378 12.36C20.4076 12.9412 18.1224 13.6948 16.034 14.8164C13.7571 16.0485 11.6728 17.5673 9.80169 19.2644C4.55511 23.8247 2.05274 30.5722 2.10398 37.033C2.10808 39.9699 2.57946 42.9165 3.67386 45.6499C5.74175 50.9619 9.93695 55.3363 14.956 58.1124C17.5178 59.5324 20.3133 60.5553 23.2132 61.1036C26.1214 61.615 29.1177 61.6556 32.0258 61.2314L33.4502 61.0086L34.8459 60.6502C35.7866 60.4507 36.676 60.1 37.5757 59.7823C42.7014 57.8528 47.3434 54.3464 49.897 49.7144C51.4628 46.9693 52.7703 44.166 53.213 41.6243Z" fill="#FFFEFC"/>
<path fill-rule="evenodd" clip-rule="evenodd" d="M44.1686 40.1346C44.6195 37.8351 44.7097 35.8552 44.8593 33.7823C44.9105 33.1256 44.9843 32.4553 45.0806 31.7928C45.1503 31.3085 45.47 30.9733 45.9373 30.8861C46.4476 30.7873 46.8124 31.1786 47.0932 31.6901C47.1321 31.7598 47.1608 31.8373 47.2039 31.8993C48.8762 34.2221 49.1467 37.2655 47.9498 39.8421C47.6158 40.5201 47.499 41.3279 47.21 42.0602C46.0029 45.7081 43.5866 48.7864 40.6969 51.3165C39.0204 52.7539 36.971 53.769 34.8539 54.4839C30.9087 55.8554 26.5065 55.8826 22.5122 54.6892C18.1182 53.3777 14.3287 50.4583 11.976 46.7329C10.3733 44.2629 9.43059 41.4074 9.24819 38.5034C9.19286 37.8912 9.15595 37.2771 9.21744 36.6669C9.44493 32.4514 11.2115 28.3812 14.0869 25.1072C15.4395 23.5516 17.1939 22.306 19.0732 21.3412C20.7947 20.4946 22.6351 19.8883 24.5288 19.5221C26.4328 19.2238 28.3695 19.1056 30.2857 19.2955C31.583 19.4233 32.8926 19.5919 34.1551 19.9483C34.5404 20.0607 34.9072 20.2389 35.2495 20.4346C35.3273 20.4792 35.3212 20.6438 35.3171 20.7523C35.315 20.793 35.229 20.8492 35.1695 20.8511C34.8683 20.8511 34.5568 20.9015 34.2719 20.8376C32.6672 20.4753 31.0358 20.3242 29.4208 20.3145C26.1848 20.3048 22.9856 21.0468 20.2311 22.5365C18.7371 23.3734 17.405 24.4195 16.1651 25.5199C12.6687 28.5033 11.2013 33.0229 11.2833 37.2074C11.3038 39.1175 11.6071 41.0354 12.3469 42.8003C13.7488 46.2331 16.538 48.9878 19.7762 50.7256C23.0676 52.5369 26.9902 53.2421 30.7079 52.6454C31.9253 52.4866 33.1016 52.1204 34.235 51.6961C37.4833 50.4602 40.4858 48.2479 42.0208 45.2548C42.9595 43.4919 43.8919 41.76 44.1686 40.1346Z" fill="#FFFEFC"/>
<path fill-rule="evenodd" clip-rule="evenodd" d="M35.9748 38.7863C36.2187 37.6821 36.3683 36.7464 36.7638 35.6247C36.8888 35.2702 37.0589 34.8866 37.2557 34.4837C37.3991 34.1911 37.7557 33.9354 38.2066 33.8153C38.7026 33.6778 38.9834 33.8773 39.1862 34.1601C39.2149 34.1988 39.2313 34.2434 39.2641 34.2763C40.5717 35.5201 40.7438 37.4205 39.6945 38.8677C39.4117 39.2493 39.3359 39.7085 39.1494 40.123C38.3439 42.1882 36.9093 43.8387 35.3272 45.3091C34.4049 46.146 33.2224 46.6885 32.0296 47.0895C29.806 47.8605 27.3282 47.876 25.0738 47.2057C22.596 46.4637 20.4646 44.8209 19.1284 42.7229C18.2205 41.3319 17.6671 39.7259 17.5503 38.0831C17.5155 37.7382 17.4847 37.3896 17.5216 37.0447C17.6774 34.6561 18.6488 32.3681 20.2084 30.4289C20.9462 29.5049 21.9709 28.8035 23.0489 28.2553C25.0205 27.2731 27.2872 26.9147 29.4678 27.1278C30.2076 27.2034 30.9618 27.2693 31.6873 27.4669C31.9087 27.5269 32.1116 27.6567 32.294 27.7943C32.337 27.8253 32.3063 27.9841 32.2878 28.0849C32.2796 28.1236 32.2181 28.1875 32.1813 28.1972C31.9968 28.2398 31.798 28.3328 31.6382 28.3057C30.7303 28.1623 29.8265 28.1429 28.9472 28.172C27.1847 28.2321 25.4755 28.6854 24.0327 29.532C23.2498 30.0086 22.6001 30.6246 21.93 31.1903C20.0199 32.7459 19.4891 35.2431 19.5997 37.3682C19.6366 38.3466 19.7862 39.3327 20.2043 40.2199C20.9995 41.9499 22.5161 43.2401 24.1434 44.0364C25.7973 44.8713 27.7073 45.1929 29.5129 44.8674C30.1031 44.7802 30.6647 44.5807 31.2078 44.3714C32.7551 43.7651 34.2696 42.7248 34.8865 41.2156C35.2534 40.3439 35.8498 39.5787 35.9748 38.7863Z" fill="#FFFEFC"/>
<path fill-rule="evenodd" clip-rule="evenodd" d="M33.2793 36.8452C32.3858 37.5174 31.5127 37.9649 30.2318 37.9339C29.8301 37.9242 29.3669 37.8429 28.8812 37.7014C28.5205 37.5988 28.0696 37.2481 27.6761 36.7929C27.2417 36.2892 27.2212 35.9967 27.2991 35.7584C27.3093 35.7274 27.3318 35.7041 27.3339 35.6673C27.3749 34.2183 28.1537 33.5421 29.6948 33.6371C30.1027 33.6603 30.3589 33.4646 30.6355 33.3155C31.9964 32.5812 33.3388 31.8296 34.343 30.7118C34.9127 30.0783 35.6444 29.6056 36.2941 29.0515C37.4991 28.017 38.6981 26.9787 39.897 25.9384C41.2107 24.7993 42.5305 23.6679 43.8299 22.5152C44.6968 21.7442 45.533 20.9421 46.3794 20.1556C46.5577 19.989 46.7196 19.8031 46.9102 19.6519C48.2259 18.6058 49.4638 17.4822 50.5049 16.1532C50.9947 15.5275 51.6444 15.0548 52.2572 14.5492C53.3639 13.6328 54.5075 12.7533 55.6101 11.837C55.9872 11.5251 56.2843 11.1318 56.6409 10.8006C56.7496 10.6979 56.9217 10.6572 57.0959 10.6281C57.1348 10.6204 57.3009 10.7618 57.4074 10.8509C57.4484 10.8858 57.5099 10.9807 57.514 11.0156C57.5304 11.1861 57.5919 11.4011 57.5283 11.4999C57.1758 12.0482 56.8233 12.6003 56.4114 13.0923C55.5834 14.0726 54.7145 15.0122 53.8639 15.973C53.3987 16.4961 53.0319 17.1257 52.458 17.5364C50.9025 18.6504 49.9679 20.3862 48.642 21.7287C48.0435 22.337 47.3836 22.8813 46.818 23.5206C45.7256 24.7566 44.7255 26.0817 43.6044 27.2848C42.4588 28.5091 41.2127 29.6308 40.0118 30.8009C39.6183 31.1806 39.2371 31.5758 38.8354 31.9497C37.6754 33.0268 36.3474 33.9431 35.3985 35.2275C34.8246 36.0044 33.845 36.3163 33.2793 36.8452Z" fill="#FFFEFC"/>
<path d="M64.7544 12.1334H57.4768C56.9583 12.1334 56.5361 11.7343 56.5361 11.2442V4.36493" stroke="#FFFEFC" stroke-width="0.890288" stroke-linecap="round" stroke-linejoin="round"/>
<path d="M68.3148 8.76643H61.0393C60.5188 8.76643 60.0986 8.36933 60.0986 7.87727V1" stroke="#FFFEFC" stroke-width="0.890288" stroke-linecap="round" stroke-linejoin="round"/>
</svg>
