<?xml version="1.0" standalone="no"?>
<!DOCTYPE svg PUBLIC "-//W3C//DTD SVG 20010904//EN"
 "http://www.w3.org/TR/2001/REC-SVG-20010904/DTD/svg10.dtd">
<svg version="1.0" xmlns="http://www.w3.org/2000/svg"
 width="352.000000pt" height="420.000000pt" viewBox="0 0 352.000000 420.000000"
 preserveAspectRatio="xMidYMid meet">

<g transform="translate(0.000000,420.000000) scale(0.100000,-0.100000)"
fill="#6B42AD" stroke="none">
<path d="M1922 4184 c-56 -29 -62 -52 -62 -249 0 -199 7 -226 65 -251 47 -19
84 -18 123 6 53 32 62 68 62 245 0 170 -9 211 -54 240 -37 25 -95 29 -134 9z"/>
<path d="M924 3751 c-63 -29 -86 -109 -51 -177 8 -16 62 -75 120 -131 114
-111 144 -125 211 -103 62 20 94 78 81 147 -5 30 -28 59 -103 136 -54 54 -108
107 -122 117 -40 29 -89 33 -136 11z" fill="#6B42AD" />
<path d="M2940 3759 c-39 -16 -249 -229 -261 -266 -23 -69 23 -145 96 -159 60
-11 96 10 212 129 121 122 136 152 113 221 -20 61 -102 99 -160 75z" fill="#6B42AD"/>
<path d="M2053 3404 c-66 -33 -110 -126 -173 -364 -71 -267 -90 -306 -211
-438 -44 -48 -128 -154 -186 -237 -162 -230 -239 -329 -322 -417 l-76 -81 -3
-743 -2 -742 22 -25 c18 -19 40 -27 97 -36 95 -15 158 -37 366 -126 185 -79
343 -133 475 -162 72 -15 129 -18 375 -18 257 1 301 3 386 22 172 37 279 106
331 211 19 40 23 63 23 152 1 104 1 106 37 160 70 106 103 266 79 380 -11 52
-11 55 23 120 65 123 82 268 48 401 l-18 67 38 52 c143 199 106 465 -82 592
-97 65 -121 68 -538 68 -359 0 -372 1 -372 19 0 10 38 96 85 190 113 227 130
284 129 431 0 284 -97 446 -303 510 -89 28 -189 34 -228 14z m192 -203 c100
-45 148 -147 149 -311 1 -117 -10 -152 -116 -363 -63 -127 -86 -187 -118 -305
-22 -81 -40 -153 -40 -159 0 -10 105 -13 490 -13 463 0 493 -1 528 -19 71 -37
122 -111 122 -179 0 -72 -29 -130 -100 -206 l-68 -71 36 -85 c31 -73 36 -96
37 -165 0 -96 -18 -149 -79 -230 l-43 -58 24 -76 c42 -130 15 -246 -82 -350
l-47 -50 18 -88 c21 -104 15 -135 -31 -179 -70 -66 -225 -94 -515 -94 -303 0
-434 30 -770 173 -91 39 -210 85 -265 102 l-100 32 -2 634 -3 634 66 75 c75
85 159 195 296 390 53 74 131 175 174 223 147 165 186 243 256 515 21 83 47
172 58 197 17 40 23 45 52 45 18 0 51 -9 73 -19z" fill="#6B42AD"/>
<path d="M520 2757 c-71 -25 -101 -117 -60 -185 32 -52 69 -62 235 -62 166 0
203 10 235 62 41 68 11 160 -60 185 -21 7 -93 12 -175 12 -82 0 -154 -5 -175
-12z" fill="#6B42AD"/>
<path d="M3095 2755 c-72 -26 -103 -102 -68 -172 30 -63 64 -73 236 -73 103 0
158 4 181 14 109 45 101 204 -12 236 -56 15 -289 12 -337 -5z" fill="#6B42AD"/>
<path d="M79 1900 c-24 -13 -44 -35 -58 -63 -21 -43 -21 -50 -21 -874 l0 -830
23 -43 c42 -79 46 -80 413 -80 317 0 322 0 354 23 18 12 41 38 51 57 18 33 19
76 19 875 0 799 -1 842 -19 875 -10 19 -30 44 -45 55 -26 19 -43 20 -354 22
-307 2 -329 1 -363 -17z m591 -685 l0 -515 -47 29 c-66 40 -129 54 -222 49
-66 -4 -88 -10 -145 -41 l-66 -37 0 515 0 515 240 0 240 0 0 -515z m-177 -634
c37 -14 85 -68 96 -108 31 -110 -77 -222 -191 -199 -40 8 -94 49 -113 86 -65
125 74 272 208 221z" fill="#6B42AD"/>
</g>
</svg>
