<svg width="85" height="74" viewBox="0 0 85 74" fill="none" xmlns="http://www.w3.org/2000/svg">
<path d="M84.7264 34.4492C84.7264 30.0876 81.1779 26.5391 76.8162 26.5391H65.0682C66.5237 22.6038 67.4263 17.9296 67.954 14.3889C68.487 10.8146 67.4409 7.19637 65.084 4.46198C62.7342 1.73558 59.3219 0.171875 55.7225 0.171875C54.2663 0.171875 53.0857 1.35237 53.0857 2.80857C53.0857 9.17838 49.4251 18.7943 45.1531 20.9362C40.3444 23.3467 30.8846 26.018 29.0004 26.5391C27.824 26.5391 3.77367 26.5391 2.63672 26.5391C1.18054 26.5391 1.96764e-08 27.7196 1.96764e-08 29.1758V66.0898C-0.00017598 67.546 1.18037 68.7266 2.63654 68.7266H10.5467V71.3633C10.5467 72.8195 11.7272 74 13.1834 74H24.0818C27.3023 74 30.0774 72.0645 31.3103 69.2964L49.8095 73.9212C50.0187 73.9735 50.2335 74 50.449 74H66.2693C70.631 74 74.1795 70.4515 74.1795 66.0898C74.1795 65.0612 73.9821 64.0779 73.6233 63.1756C76.9786 62.2597 79.4529 59.1848 79.4529 55.543C79.4529 54.5143 79.2555 53.531 78.8968 52.6287C82.2521 51.7129 84.7264 48.6379 84.7264 44.9961C84.7264 42.972 83.9623 41.1231 82.7074 39.7227C83.9623 38.3222 84.7264 36.4733 84.7264 34.4492ZM10.5465 63.4531H5.27308V31.8125H10.5465V63.4531ZM26.7184 66.0898C26.7184 67.5437 25.5356 68.7266 24.0817 68.7266H15.8199V31.8125H26.7184V66.0898ZM60.9959 42.3594H76.8162C78.2701 42.3594 79.4529 43.5422 79.4529 44.9961C79.4529 46.45 78.2701 47.6328 76.8162 47.6328C74.8281 47.6328 62.6208 47.6328 60.9959 47.6328C59.5397 47.6328 58.3592 48.8134 58.3592 50.2695C58.3592 51.7257 59.5397 52.9062 60.9959 52.9062H71.5428C72.9967 52.9062 74.1795 54.0891 74.1795 55.543C74.1795 56.9969 72.9967 58.1797 71.5428 58.1797C70.425 58.1797 62.1137 58.1797 60.9959 58.1797C59.5397 58.1797 58.3592 59.3602 58.3592 60.8164C58.3592 62.2726 59.5397 63.4531 60.9959 63.4531H66.2693C67.7232 63.4531 68.9061 64.636 68.9061 66.0898C68.9061 67.5437 67.7232 68.7266 66.2693 68.7266H50.7737L31.992 64.0313V31.1755C35.5495 30.154 43.0952 27.8669 47.5163 25.6505C53.572 22.6146 57.2801 13.012 58.1572 5.87617C59.2789 6.28638 60.2914 6.97868 61.0899 7.90498C62.4442 9.47598 63.045 11.5558 62.7384 13.6112C61.4895 21.9879 59.9228 25.4264 58.6376 27.9965C58.2289 28.8138 58.2725 29.7845 58.7529 30.5618C59.2333 31.3391 60.082 31.8125 60.9959 31.8125H76.8162C78.2701 31.8125 79.4529 32.9953 79.4529 34.4492C79.4529 35.9031 78.2701 37.0859 76.8162 37.0859H60.9959C59.5397 37.0859 58.3592 38.2665 58.3592 39.7227C58.3592 41.1788 59.5397 42.3594 60.9959 42.3594Z" fill="#6B42AD"/>
</svg>
