<?xml version="1.0" standalone="no"?>
<!DOCTYPE svg PUBLIC "-//W3C//DTD SVG 20010904//EN"
 "http://www.w3.org/TR/2001/REC-SVG-20010904/DTD/svg10.dtd">
<svg version="1.0" xmlns="http://www.w3.org/2000/svg"
 width="90.000000pt" height="90.000000pt" viewBox="0 0 90.000000 90.000000"
 preserveAspectRatio="xMidYMid meet">
<metadata>
Created by potrace 1.16, written by Peter Selinger 2001-2019
</metadata>
<g transform="translate(0.000000,90.000000) scale(0.100000,-0.100000)"
fill="#000000" stroke="none">
<path d="M480 710 c-6 -12 -18 -44 -26 -70 -8 -27 -25 -62 -38 -77 -13 -15
-47 -59 -75 -96 l-52 -69 3 -145 3 -145 86 -33 c103 -40 160 -50 234 -40 69 8
94 29 107 85 23 109 30 148 32 185 1 22 8 53 14 68 16 37 6 72 -25 97 -21 16
-41 20 -104 20 -48 0 -79 4 -79 10 0 6 9 29 21 52 16 31 20 53 16 86 -6 51
-29 79 -74 88 -25 5 -33 2 -43 -16z m70 -39 c15 -30 12 -78 -9 -119 -10 -20
-22 -52 -26 -69 l-7 -33 104 0 c68 0 108 -4 116 -12 16 -16 15 -51 0 -67 -7
-6 -14 -33 -15 -59 -3 -74 -11 -130 -22 -151 -6 -11 -11 -31 -11 -46 0 -35
-37 -48 -130 -43 -53 2 -97 12 -147 32 l-73 29 0 129 0 128 58 76 c65 87 102
144 102 161 0 26 20 63 34 63 9 0 20 -9 26 -19z"/>
<path d="M76 404 c-12 -31 -7 -349 6 -362 7 -7 40 -12 80 -12 56 0 69 3 78 19
13 26 13 326 0 352 -9 16 -22 19 -84 19 -58 0 -75 -3 -80 -16z m132 -126 l3
-108 -26 12 c-19 8 -31 8 -50 0 l-25 -12 0 111 0 110 48 -3 47 -3 3 -107z"/>
</g>
</svg>
