<svg width="60" height="60" viewBox="0 0 60 60" fill="none" xmlns="http://www.w3.org/2000/svg">
<g filter="url(#filter0_d)">
<path d="M49.6429 0H10.3571C7.39955 0 5 2.39955 5 5.35714V44.6429C5 47.6004 7.39955 50 10.3571 50H49.6429C52.6004 50 55 47.6004 55 44.6429V5.35714C55 2.39955 52.6004 0 49.6429 0ZM44.1853 17.7232C44.2076 18.0357 44.2076 18.3594 44.2076 18.6719C44.2076 28.3482 36.8415 39.4978 23.3817 39.4978C19.2299 39.4978 15.3795 38.2924 12.1429 36.2165C12.7344 36.2835 13.3036 36.3058 13.9062 36.3058C17.3326 36.3058 20.4799 35.1451 22.9911 33.1808C19.7768 33.1138 17.0759 31.0045 16.1496 28.1027C17.2768 28.2701 18.2924 28.2701 19.4531 27.9688C16.1049 27.2879 13.5938 24.3415 13.5938 20.7812V20.692C14.5647 21.2388 15.7031 21.5737 16.8973 21.6183C15.8933 20.9505 15.0703 20.0445 14.5016 18.9812C13.933 17.9179 13.6364 16.7304 13.6384 15.5246C13.6384 14.1629 13.9955 12.9129 14.6317 11.8304C18.2366 16.2723 23.6496 19.1741 29.721 19.4866C28.683 14.5201 32.3996 10.4911 36.8638 10.4911C38.9732 10.4911 40.8705 11.3728 42.2098 12.8013C43.8616 12.4888 45.4464 11.875 46.8527 11.0379C46.3058 12.7344 45.1562 14.1629 43.6384 15.067C45.1116 14.9107 46.5402 14.4978 47.8571 13.9286C46.8638 15.3906 45.6138 16.6853 44.1853 17.7232Z" fill="#3A1576"/>
</g>
<defs>
<filter id="filter0_d" x="0" y="0" width="60" height="60" filterUnits="userSpaceOnUse" color-interpolation-filters="sRGB">
<feFlood flood-opacity="0" result="BackgroundImageFix"/>
<feColorMatrix in="SourceAlpha" type="matrix" values="0 0 0 0 0 0 0 0 0 0 0 0 0 0 0 0 0 0 127 0"/>
<feOffset dy="5"/>
<feGaussianBlur stdDeviation="2.5"/>
<feColorMatrix type="matrix" values="0 0 0 0 0 0 0 0 0 0 0 0 0 0 0 0 0 0 0.1 0"/>
<feBlend mode="normal" in2="BackgroundImageFix" result="effect1_dropShadow"/>
<feBlend mode="normal" in="SourceGraphic" in2="effect1_dropShadow" result="shape"/>
</filter>
</defs>
</svg>
