<svg width="580" height="185" viewBox="0 0 580 185" fill="none" xmlns="http://www.w3.org/2000/svg">
<g clip-path="url(#clip0)">
<path fill-rule="evenodd" clip-rule="evenodd" d="M69.4404 181.721C55.0219 181.786 39.239 183.593 26.0096 177.097C4.37276 166.475 3.14502 142.899 3.01063 122.873C2.82385 95.0075 5.14721 96.1364 6.12666 69.4147C6.59817 56.5648 4.5231 40.1583 8.56619 27.6713C11.1447 19.7083 16.4292 12.1272 24.4538 8.32722C30.5652 5.43159 37.6446 4.96367 44.503 4.57968C80.3989 2.56742 116.347 1.3735 152.307 1C188.267 1.3735 500.601 2.56742 536.495 4.57968C543.355 4.96367 550.435 5.43159 556.546 8.32722C564.571 12.1272 569.855 19.7083 572.434 27.6713C576.475 40.1583 574.402 56.5648 574.873 69.4147C575.853 96.1364 578.176 95.0075 577.989 122.873C577.857 142.899 576.629 166.475 554.99 177.097C541.761 183.593 525.978 181.786 511.56 181.721C494.77 181.646 86.2301 181.646 69.4404 181.721Z" fill="#F6F0FF"/>
<path fill-rule="evenodd" clip-rule="evenodd" d="M7.95282 89.6031C7.46731 94.3694 6.89974 98.9443 6.57607 103.427C6.23872 107.916 6.09283 112.35 6.02445 116.731C5.92188 125.504 5.86261 133.999 6.74246 142.05C7.21201 146.074 7.92775 149.99 9.00134 153.748C10.1228 157.49 11.6796 161.029 13.6992 164.264C17.7132 170.756 24.1821 175.612 31.5286 178.407C40.9175 181.843 51.2728 181.993 60.6069 182.241C67.5294 182.391 70.4904 182.995 69.2527 183.638C67.8987 184.291 60.9716 184.827 52.6883 185C51.5714 184.998 50.3633 184.996 49.3148 184.994C44.4118 184.983 39.4085 184.691 34.4531 183.613C31.9731 183.119 29.5342 182.346 27.1476 181.45C24.7565 180.524 22.5615 179.27 20.3482 178.035C16.0538 175.345 12.3475 171.816 9.50281 167.826C6.64445 163.834 4.63402 159.428 3.23903 154.954C0.544779 145.96 0.0296322 136.806 0 127.869C0.034191 118.947 0.259853 109.999 1.31066 101.007C1.86911 96.2465 2.59396 91.1898 3.09998 86.032C3.61741 80.8701 3.93425 75.5734 4.16675 70.4115C4.74799 57.9053 3.15241 45.0057 5.80563 32.0955C7.16415 25.6605 10.0202 19.3769 14.6565 14.2402C16.977 11.6897 19.7692 9.43598 22.9809 7.81563C26.1834 6.15951 29.7028 5.19782 33.1949 4.61071C36.6983 4.0236 40.204 3.79422 43.6619 3.60483L54.008 3.07033C60.9078 2.75257 67.8143 2.43271 74.7232 2.11075C88.5432 1.51732 102.388 1.02491 116.263 0.616664C147.789 -0.532308 179.507 0.258926 211.072 0.351518C269.744 0.726091 328.409 1.09856 387.076 1.47314L483.545 2.4243C499.63 2.64946 515.691 2.84306 531.811 3.37125C535.85 3.51434 539.857 3.65113 543.935 4.06989C547.997 4.48234 552.141 5.20413 556.032 6.77187C559.939 8.32698 563.376 10.787 566.141 13.6994C568.926 16.6139 571.046 19.9893 572.655 23.5204C574.818 28.2467 575.849 33.3224 576.38 38.3139C576.89 43.3243 576.945 48.3243 576.884 53.2863C576.838 58.2526 576.658 63.1915 576.756 68.0883C576.904 72.9872 577.15 77.9387 577.526 82.8418C577.893 87.7555 578.466 92.6418 578.974 97.5933C579.494 102.545 579.772 107.539 579.895 112.507C580.038 122.44 580.221 132.358 579.049 142.362C578.52 146.566 577.727 150.764 576.471 154.883C575.185 158.994 573.337 162.999 570.827 166.665C566.594 173.043 559.95 177.898 552.542 180.77C545.04 183.601 536.96 184.242 529.169 184.297C521.307 184.314 513.694 183.908 505.933 184.034L482.722 184.057C451.772 184.162 420.836 184.266 389.9 184.371C360.701 184.533 331.235 184.461 301.895 184.442C248.851 184.392 195.803 184.343 142.754 184.295C124.724 184.335 106.685 184.375 88.6503 184.413C83.1387 184.419 77.5314 184.333 72.1224 184.236C70.8893 184.215 70.0937 183.986 69.5604 183.84C69.3598 183.784 70.1941 183.666 70.9599 183.636C74.9124 183.487 78.8717 183.272 83.0567 183.239C106.607 183.07 130.176 182.902 153.821 182.734C201.098 182.553 248.422 182.37 295.734 182.191C321.644 182.092 347.613 181.839 373.445 181.909C408.536 182.001 443.459 181.86 478.345 181.677L504.504 181.536C508.857 181.517 513.229 181.454 517.606 181.555C521.971 181.635 526.315 181.745 530.63 181.648C539.21 181.471 547.915 180.368 555.264 176.505C558.958 174.621 562.211 172.109 564.987 169.215C567.8 166.328 569.836 162.86 571.493 159.276C574.477 152.751 575.685 145.579 576.341 138.425C576.927 131.244 576.922 123.963 576.865 116.701C576.811 109.433 576.409 102.238 575.575 95.0155C574.748 87.7765 574.103 80.4492 573.781 73.164C572.87 59.0165 575.005 44.8121 571.869 31.4495C570.267 24.9029 566.948 18.5878 561.769 14.0803C559.195 11.816 556.171 10.1262 552.82 9.06771C549.462 8.00291 545.836 7.49997 542.141 7.19695C538.439 6.8834 534.621 6.7887 530.86 6.67086C527.095 6.52356 523.288 6.48147 519.493 6.40992L496.701 6.09006C481.498 5.95959 466.287 5.82702 451.072 5.69444C389.086 5.34302 327.032 4.9916 265.005 4.63807L204.084 4.39607C189.418 4.30979 174.734 4.22351 160.048 4.13934L154.536 4.09304L151.849 4.08252L149.1 4.11408L138.102 4.2656L116.117 4.73277C101.467 5.11155 86.8337 5.64815 72.2341 6.32786C64.9355 6.71085 57.6437 7.09594 50.361 7.47682C43.0601 7.96924 35.7524 8.03237 29.5478 9.97258C22.0737 12.1716 16.5917 18.007 13.4553 24.7261C10.2938 31.439 9.537 38.9894 9.32501 46.4535C9.11759 53.9345 9.51877 61.3544 9.31818 68.7027C9.06289 75.969 8.60929 82.9344 7.95282 89.6031Z" fill="#7757AC"/>
</g>
<defs>
<clipPath id="clip0">
<rect width="580" height="185" fill="white"/>
</clipPath>
</defs>
</svg>
