<?xml version="1.0" encoding="UTF-8"?>
<svg fill="none" viewBox="0 0 90 90" xmlns="http://www.w3.org/2000/svg">
<path d="m81.727 19.053c-0.6849-0.9674-1.3994-1.9108-2.16-2.8191-8.2599-9.9122-20.69-16.234-34.568-16.234-0.0258 0-0.0462 0.0018462-0.0683 0.0018462-0.0148 0-0.0259-0.0018462-0.0406-0.0018462-0.0499 0-0.1016 0.0055386-0.1551 0.0055386-13.773 0.079386-26.094 6.3823-34.306 16.228-0.75703 0.9101-1.4752 1.8517-2.1601 2.8191-5.1989 7.3386-8.2691 16.287-8.2691 25.946 0 9.6574 3.0684 18.61 8.2691 25.946 0.68494 0.9674 1.4031 1.9108 2.1601 2.8191 8.21 9.8457 20.532 16.149 34.306 16.228 0.0535 0 0.1052 0.0056 0.1551 0.0056 0.0147 0 0.0258-0.0019 0.0388-0.0019 0.0221 0 0.0424 0.0019 0.0683 0.0019 13.88 0 26.308-6.3196 34.57-16.232 0.7569-0.9083 1.4751-1.8535 2.16-2.8209 5.1989-7.3387 8.2691-16.287 8.2691-25.948 0-9.6556-3.0702-18.606-8.2691-25.944zm-49.882-13.2c-4.1355 3.9896-7.5731 9.8218-9.9418 16.821-3.1736-1.1853-6.0296-2.6124-8.4924-4.226 4.8278-5.7342 11.177-10.15 18.434-12.595zm-20.602 15.418c2.7989 1.8683 6.0334 3.5022 9.6095 4.8481-1.5435 5.6382-2.4296 11.897-2.4629 18.501h-14.69c0.07938-8.6864 2.8764-16.725 7.5435-23.349zm-7.4051 27.041h14.624c0.2382 5.5275 1.0782 10.773 2.3872 15.571-3.5779 1.3459-6.8106 2.9798-9.6058 4.85-4.1373-5.8728-6.805-12.855-7.4051-20.421zm9.5836 23.232c2.4629-1.6099 5.3115-3.0333 8.4778-4.2185 2.3686 7.0007 5.8081 12.829 9.9454 16.819-7.2574-2.4425-13.594-6.8679-18.423-12.6zm29.731 14.629c-7.5768-1.0375-14.116-8.8081-17.823-20 5.3447-1.6025 11.395-2.5735 17.823-2.7305v22.73zm0-26.419c-6.7792 0.1625-13.169 1.2093-18.859 2.9558-1.165-4.4235-1.9108-9.2771-2.1342-14.397h20.993v11.441zm0-15.135h-21.071c0.0333-6.2014 0.84-12.059 2.2284-17.325 5.6826 1.741 12.068 2.7896 18.84 2.9502v14.374h0.0018zm0-18.063c-6.4247-0.1569-12.473-1.1243-17.812-2.7268 3.7053-11.186 10.239-18.964 17.812-20.003v22.73zm43.14 18.063h-14.902c-0.0332-6.5762-0.9083-12.809-2.4406-18.427 3.6554-1.3588 6.9583-3.0185 9.8032-4.9201 4.6654 6.6242 7.4605 14.661 7.5399 23.347zm-9.711-26.168c-2.5127 1.645-5.4333 3.0943-8.6826 4.2924-2.3909-7.0949-5.8783-12.997-10.078-17.002 7.3922 2.4204 13.858 6.8863 18.761 12.709zm-29.737-14.598c7.4937 1.1576 13.948 8.9208 17.614 20.031-5.2893 1.5674-11.269 2.5163-17.614 2.6714v-22.703zm0 26.393c6.6924-0.1588 13.006-1.1853 18.639-2.8893 1.3809 5.2505 2.1821 11.086 2.2135 17.264h-20.853v-14.374zm0 18.065h20.777c-0.2234 5.0955-0.9655 9.927-2.1194 14.338-5.6401-1.7096-11.962-2.7342-18.654-2.8949l-0.0037-11.443zm0 37.834v-22.701c6.3491 0.1551 12.329 1.104 17.626 2.6714-3.6721 11.114-10.134 18.872-17.626 20.029zm10.976-1.8869c4.2001-4.0025 7.6949-9.9011 10.086-16.998 3.2419 1.1963 6.1589 2.6437 8.6678 4.285-4.9035 5.821-11.361 10.291-18.754 12.713zm20.932-15.526c-2.8449-1.9016-6.1478-3.565-9.8051-4.922 1.296-4.7779 2.1287-9.999 2.3631-15.497h14.845c-0.6001 7.5638-3.2604 14.548-7.4033 20.419z" fill="#6B42AD"/>
</svg>
