<svg width="60" height="60" viewBox="0 0 60 60" fill="none" xmlns="http://www.w3.org/2000/svg">
<g filter="url(#filter0_d)">
<path d="M30 10.1339C21.8862 10.1339 15.2902 16.7299 15.279 24.8438C15.279 27.6228 16.0603 30.3348 17.5335 32.6674L17.8795 33.2254L16.3951 38.6496L21.9643 37.1875L22.5 37.5112C24.7545 38.8504 27.3437 39.5647 29.9888 39.5647H30C38.1027 39.5647 44.8772 32.9688 44.8772 24.8549C44.8772 20.9263 43.1808 17.2321 40.4018 14.4531C37.6116 11.6629 33.9286 10.1339 30 10.1339ZM38.6496 31.1607C38.2812 32.1987 36.5179 33.1362 35.6696 33.2589C34.2634 33.471 33.1696 33.3594 30.3683 32.154C25.9375 30.2344 23.0357 25.7701 22.8125 25.4799C22.5893 25.1897 21.0045 23.0804 21.0045 20.904C21.0045 18.7277 22.1429 17.6562 22.5558 17.2098C22.9576 16.7634 23.4375 16.6518 23.7388 16.6518C24.029 16.6518 24.3304 16.6518 24.5871 16.6629C24.8549 16.6741 25.2232 16.5625 25.5804 17.4219C25.9487 18.3036 26.8304 20.4799 26.942 20.7031C27.0536 20.9263 27.1317 21.183 26.9754 21.4732C26.1272 23.1696 25.2232 23.1027 25.6808 23.8839C27.3884 26.8192 29.096 27.8348 31.6964 29.1406C32.1429 29.3638 32.3996 29.3304 32.6562 29.029C32.9129 28.7388 33.7612 27.7344 34.0513 27.2991C34.3415 26.8527 34.6429 26.9308 35.0446 27.0759C35.4464 27.221 37.6228 28.2924 38.0692 28.5156C38.5156 28.7388 38.8058 28.8504 38.9174 29.029C39.0179 29.2411 39.0179 30.1339 38.6496 31.1607ZM49.6429 0H10.3571C7.39955 0 5 2.39955 5 5.35714V44.6429C5 47.6004 7.39955 50 10.3571 50H49.6429C52.6004 50 55 47.6004 55 44.6429V5.35714C55 2.39955 52.6004 0 49.6429 0ZM29.9888 42.5446C27.0201 42.5446 24.1071 41.7969 21.529 40.3906L12.1429 42.8571L14.654 33.683C13.1027 31.0045 12.2879 27.9576 12.2879 24.8326C12.2991 15.0781 20.2344 7.14286 29.9888 7.14286C34.721 7.14286 39.1629 8.98438 42.5112 12.3326C45.8482 15.6808 47.8571 20.1228 47.8571 24.8549C47.8571 34.6094 39.7433 42.5446 29.9888 42.5446Z" fill="#3A1576"/>
</g>
<defs>
<filter id="filter0_d" x="0" y="0" width="60" height="60" filterUnits="userSpaceOnUse" color-interpolation-filters="sRGB">
<feFlood flood-opacity="0" result="BackgroundImageFix"/>
<feColorMatrix in="SourceAlpha" type="matrix" values="0 0 0 0 0 0 0 0 0 0 0 0 0 0 0 0 0 0 127 0"/>
<feOffset dy="5"/>
<feGaussianBlur stdDeviation="2.5"/>
<feColorMatrix type="matrix" values="0 0 0 0 0 0 0 0 0 0 0 0 0 0 0 0 0 0 0.1 0"/>
<feBlend mode="normal" in2="BackgroundImageFix" result="effect1_dropShadow"/>
<feBlend mode="normal" in="SourceGraphic" in2="effect1_dropShadow" result="shape"/>
</filter>
</defs>
</svg>
